<?xml version="1.0" encoding="UTF-8" standalone="no"?>
<svg
   xmlns:dc="http://purl.org/dc/elements/1.1/"
   xmlns:cc="http://creativecommons.org/ns#"
   xmlns:rdf="http://www.w3.org/1999/02/22-rdf-syntax-ns#"
   xmlns:svg="http://www.w3.org/2000/svg"
   xmlns="http://www.w3.org/2000/svg"
   xmlns:sodipodi="http://sodipodi.sourceforge.net/DTD/sodipodi-0.dtd"
   xmlns:inkscape="http://www.inkscape.org/namespaces/inkscape"
   version="1.1"
   id="svg2"
   xml:space="preserve"
   width="3180.1599"
   height="2666.6667"
   viewBox="0 0 3180.1599 2666.6667"
   sodipodi:docname="5844.eps"><metadata
     id="metadata8"><rdf:RDF><cc:Work
         rdf:about=""><dc:format>image/svg+xml</dc:format><dc:type
           rdf:resource="http://purl.org/dc/dcmitype/StillImage" /></cc:Work></rdf:RDF></metadata><defs
     id="defs6" /><sodipodi:namedview
     pagecolor="#ffffff"
     bordercolor="#666666"
     borderopacity="1"
     objecttolerance="10"
     gridtolerance="10"
     guidetolerance="10"
     inkscape:pageopacity="0"
     inkscape:pageshadow="2"
     inkscape:window-width="640"
     inkscape:window-height="480"
     id="namedview4" /><g
     id="g10"
     inkscape:groupmode="layer"
     inkscape:label="ink_ext_XXXXXX"
     transform="matrix(1.3333333,0,0,-1.3333333,0,2666.6667)"><g
       id="g12"
       transform="scale(0.1)"><path
         d="M 0.0078125,7914.3 H 23851.208 V 20000 H 0.0078125 Z"
         style="fill:#caf0ff;fill-opacity:1;fill-rule:nonzero;stroke:none"
         id="path14" /><path
         d="m 23645.7,10686.3 c -318.1,0 -638,38.3 -940.5,106.4 -1068.9,240.5 -2065.7,766.4 -3150.3,921.5 -164.1,23.5 -330.7,38.8 -498.7,49.9 l -68.9,730 c 280.4,-43.9 556.7,-142.3 837,-142.3 39.8,0 79.7,2 119.7,6.4 390.3,43 744.7,346.3 824.3,730.1 79.7,383.7 -138.6,814.4 -504.1,957.7 -134.4,52.8 -279.2,68.6 -427.7,68.6 -112.2,0 -226.4,-9 -339.9,-18.1 -113.5,-9 -226.2,-18.1 -335.2,-18.1 -59.3,0 -117.5,2.7 -174.1,9.5 -2.1,8.5 -5.5,16.8 -10.4,24.7 -16,25.8 -43.7,40 -72,40 -15.3,0 -30.7,-4.1 -44.6,-12.7 -9.6,-5.9 -17.6,-13.4 -23.9,-21.9 -89.7,26.1 -173.8,67.6 -250.2,131.4 -105.1,87.7 -178.6,208.3 -283.8,295.7 -184.6,153.3 -438.7,184.8 -677.5,210 -117.3,12.4 -241.1,22.5 -363.2,22.5 -384.4,0 -750.7,-100 -836.6,-541.9 -60.4,-310.5 -113.6,-659.3 65.2,-920.5 107.9,-157.5 282.7,-253.7 451,-344.3 307.3,-165.3 621.4,-333 962.3,-402.7 -69,-215.4 -151.8,-457.6 -249.4,-718.3 -452.9,54.8 -885.6,164.4 -1268.4,414.4 -956.9,625 -1205,2104.1 -504.2,3005.9 148.9,191.6 344.5,419.3 251.5,643.3 -105.6,254.6 -497.2,261.6 -641.3,496.7 -97.3,159 -46.9,361.9 -52.3,548.1 -11.3,396.4 -294.8,744.5 -638.3,944 -343.4,199.5 -742.3,277 -1132.6,351.4 -685.3,130.6 -1370.7,261.2 -2056,391.8 -343.8,65.5 -703.4,138.2 -973.8,359.8 -270.5,221.7 -411.1,643.2 -209.6,928.8 16.6,23.5 35,45.4 54.7,65.9 h 2602.9 c 195.1,-519.7 800.2,-767.2 1355.1,-809.6 105.4,-8.1 211.2,-10.9 317.2,-10.9 129.7,0 259.7,4.2 389.5,8.5 129.9,4.3 259.7,8.6 389.1,8.6 191.9,0 382.9,-9.4 572.1,-42.3 344.6,-59.9 693.2,-196.5 1034.3,-196.5 99.9,0 199.2,11.8 297.5,40.6 336.8,98.6 596.3,384.6 936.5,471.3 142,36.2 290.6,35.4 435.2,59.2 308.2,50.7 581.8,228.7 776.4,471.1 h 4261.5 v -1490 c -225.5,11.4 -451,20.5 -676.5,20.5 -103.3,0 -206.6,-1.9 -309.9,-6.4 -129.6,-5.6 -261.9,-16 -381.3,-66.5 -130.1,-55.1 -235.9,-153.9 -356.5,-227.3 -285.9,-174 -635.9,-196.3 -970.3,-213.9 -450.6,-23.8 -901.3,-47.5 -1351.9,-71.3 -48.2,-2.5 -99.2,-6 -139,-33.2 -51.9,-35.4 -71.8,-102.4 -77.6,-165 -24.4,-263.1 141.3,-516.4 361.3,-663.7 219.9,-147.3 486.6,-206.2 748.6,-246 482.8,-73.2 970.1,-90.9 1458.8,-90.9 229.1,0 458.5,3.9 687.9,7.8 229.3,3.9 458.5,7.8 687.5,7.8 12.9,0 25.8,-0.1 38.7,-0.1 93.5,-0.2 190.3,-2.1 280.2,-24.3 v -6045.8 c -68.3,-3.6 -136.8,-5.4 -205.5,-5.4"
         style="fill:#d5f3ff;fill-opacity:1;fill-rule:nonzero;stroke:none"
         id="path16" /><path
         d="m 1247.17,10826.5 c -293.51,0 -587.147,5 -880.525,16.8 -121.879,4.9 -244.266,11.1 -366.6371875,19.6 v 1034.4 C 256.922,11911.3 513.09,11939.1 766.98,11980.9 c 197.946,32.5 400.65,75.9 565.56,189.9 164.91,114 284.24,315.2 245.68,511.6 -52.54,267.7 -354.3,404.5 -624.15,448.4 -134.929,21.9 -269.675,31.4 -404.39,31.4 -183.328,0 -366.551,-17.6 -549.6721875,-45.5 v 1189.1 C 488.898,14502.9 969.242,14731.8 1490.54,14792.9 c 102.57,12 204.8,17.4 306.99,17.4 811.21,0 1612.2,-337.6 2431.98,-351 17.4,-0.3 34.78,-0.4 52.18,-0.4 222.85,0 445.29,22.7 666.49,50.5 168.67,21.2 348.71,50.8 472.03,167.5 169.56,160.5 173.1,424.2 164.8,657.3 -1.74,48.7 -5.92,102.9 -41.96,135.8 -30.28,27.6 -74.45,31.9 -115.22,36.4 -633.23,69.9 -1163.63,491 -1749.65,740.3 -413.19,175.8 -862.26,266.9 -1311.42,266.9 -51.15,0 -102.33,-1.2 -153.43,-3.5 -107.85,-5 -218.11,-14.9 -326.68,-14.9 -127.41,0 -252.48,13.6 -368.51,64.4 -147.38,64.5 -264.03,183 -404.1,262.1 -210.989,119.2 -457.892,140.9 -703.368,140.9 -62.34,0 -124.586,-1.4 -186.129,-2.9 -74.852,-2 -149.6914,-3.9 -224.5351875,-5.8 v 2334.8 C 538.27,19325.9 1077.77,19345.4 1617.33,19347.2 c 12.57,0 25.12,0 37.73,0 232.89,0 471.35,-8.9 683.39,-103.3 271.34,-120.8 463.67,-364.5 693.07,-552.8 475.89,-390.8 1109.66,-538 1725.05,-571.6 125.32,-6.9 250.66,-9.5 376.08,-9.5 209.14,0 418.42,7.3 627.7,14.6 209.27,7.3 418.55,14.7 627.79,14.7 72.26,0 144.54,-0.9 216.78,-2.9 975.11,-27.7 1930.06,-268 2875.7,-506.9 1075.08,-271.7 2150.08,-543.3 3225.18,-815 269.7,-68.2 545.4,-138.9 776.7,-293.3 231.2,-154.5 413.4,-411.5 401.1,-688.9 -21.6,-485.3 -559.7,-743.9 -985.3,-979.9 -666.7,-369.7 -1261.9,-1003.8 -1286.6,-1764.4 -11.4,-348 86.3,-739 -126.1,-1015.2 -77.3,-100.4 -187.3,-170.6 -300.1,-228.4 -321.2,-164.7 -678.3,-244.6 -1032.6,-314.1 -1238.19,-243.1 -2492.47,-379.6 -3751.68,-472 -317.65,1364.9 -327.07,2483.3 -327.07,2483.3 l -773.67,-751.8 -171.01,-1812.1 c -457.98,-25.3 -915.98,-47.6 -1373.68,-69.9 -835.71,-40.6 -1672.23,-81.3 -2508.62,-81.3 M 8959.98,16717 c -31.9,0 -63.82,-1 -95.73,-3.1 -204.89,-14.1 -414.44,-83.5 -553.77,-234 -139.33,-150.6 -189.02,-392.7 -79.95,-566.3 109.72,-174.7 336.69,-234.2 543.09,-243.1 27.55,-1.2 55.06,-1.8 82.56,-1.8 306.04,0 609.5,68.4 915.4,92.3 97.57,7.6 195.18,10.7 292.82,10.7 205.2,0 410.6,-13.6 616.1,-27.1 205.5,-13.6 411,-27.2 616.6,-27.2 27.2,0 54.4,0.2 81.5,0.8 107.8,2 226.3,12.8 301.7,89.6 41.8,42.6 64.4,100.6 76.3,159 87.3,431 -317.8,631.9 -667.9,631.9 -18.2,0 -36.3,-0.6 -54.1,-1.7 -147.2,-8.9 -294,-13.2 -440.7,-13.2 -372.8,0 -744.2,28 -1116.82,80.2 -171.7,24.1 -344.23,53 -517.1,53"
         style="fill:#d5f3ff;fill-opacity:1;fill-rule:nonzero;stroke:none"
         id="path18" /><path
         d="M 566.949,9323.1 H 391.672 v 3924.2 H 566.949 V 9323.1"
         style="fill:#e6f7ff;fill-opacity:1;fill-rule:nonzero;stroke:none"
         id="path20" /><path
         d="m 1605.1,9323.1 h -175.28 v 3924.2 H 1605.1 V 9323.1"
         style="fill:#e6f7ff;fill-opacity:1;fill-rule:nonzero;stroke:none"
         id="path22" /><path
         d="m 2643.26,9323.1 h -175.28 v 3924.2 h 175.28 V 9323.1"
         style="fill:#e6f7ff;fill-opacity:1;fill-rule:nonzero;stroke:none"
         id="path24" /><path
         d="m 3681.42,9323.1 h -175.28 v 3924.2 h 175.28 V 9323.1"
         style="fill:#e6f7ff;fill-opacity:1;fill-rule:nonzero;stroke:none"
         id="path26" /><path
         d="M 4719.58,9323.1 H 4544.3 v 3924.2 h 175.28 V 9323.1"
         style="fill:#e6f7ff;fill-opacity:1;fill-rule:nonzero;stroke:none"
         id="path28" /><path
         d="m 5757.73,9323.1 h -175.27 v 3924.2 h 175.27 V 9323.1"
         style="fill:#e6f7ff;fill-opacity:1;fill-rule:nonzero;stroke:none"
         id="path30" /><path
         d="m 6795.89,9323.1 h -175.27 v 3924.2 h 175.27 V 9323.1"
         style="fill:#e6f7ff;fill-opacity:1;fill-rule:nonzero;stroke:none"
         id="path32" /><path
         d="m 7834.05,9323.1 h -175.28 v 3924.2 h 175.28 V 9323.1"
         style="fill:#e6f7ff;fill-opacity:1;fill-rule:nonzero;stroke:none"
         id="path34" /><path
         d="m 8872.21,9323.1 h -175.28 v 3924.2 h 175.28 V 9323.1"
         style="fill:#e6f7ff;fill-opacity:1;fill-rule:nonzero;stroke:none"
         id="path36" /><path
         d="m 9910.37,9323.1 h -175.28 v 3924.2 h 175.28 V 9323.1"
         style="fill:#e6f7ff;fill-opacity:1;fill-rule:nonzero;stroke:none"
         id="path38" /><path
         d="m 10948.5,9323.1 h -175.3 v 3924.2 h 175.3 V 9323.1"
         style="fill:#e6f7ff;fill-opacity:1;fill-rule:nonzero;stroke:none"
         id="path40" /><path
         d="m 11986.7,9323.1 h -175.3 v 3924.2 h 175.3 V 9323.1"
         style="fill:#e6f7ff;fill-opacity:1;fill-rule:nonzero;stroke:none"
         id="path42" /><path
         d="m 13024.8,9323.1 h -175.2 v 3924.2 h 175.2 V 9323.1"
         style="fill:#e6f7ff;fill-opacity:1;fill-rule:nonzero;stroke:none"
         id="path44" /><path
         d="m 14063,9323.1 h -175.3 v 3924.2 H 14063 V 9323.1"
         style="fill:#e6f7ff;fill-opacity:1;fill-rule:nonzero;stroke:none"
         id="path46" /><path
         d="m 15101.2,9323.1 h -175.3 v 3924.2 h 175.3 V 9323.1"
         style="fill:#e6f7ff;fill-opacity:1;fill-rule:nonzero;stroke:none"
         id="path48" /><path
         d="M 16139.3,9323.1 H 15964 v 3924.2 h 175.3 V 9323.1"
         style="fill:#e6f7ff;fill-opacity:1;fill-rule:nonzero;stroke:none"
         id="path50" /><path
         d="m 17177.5,9323.1 h -175.3 v 3924.2 h 175.3 V 9323.1"
         style="fill:#e6f7ff;fill-opacity:1;fill-rule:nonzero;stroke:none"
         id="path52" /><path
         d="m 18215.6,9323.1 h -175.2 v 3924.2 h 175.2 V 9323.1"
         style="fill:#e6f7ff;fill-opacity:1;fill-rule:nonzero;stroke:none"
         id="path54" /><path
         d="m 19253.8,9323.1 h -175.3 v 3924.2 h 175.3 V 9323.1"
         style="fill:#e6f7ff;fill-opacity:1;fill-rule:nonzero;stroke:none"
         id="path56" /><path
         d="m 20291.9,9323.1 h -175.2 v 3924.2 h 175.2 V 9323.1"
         style="fill:#e6f7ff;fill-opacity:1;fill-rule:nonzero;stroke:none"
         id="path58" /><path
         d="m 21330.1,9323.1 h -175.3 v 3924.2 h 175.3 V 9323.1"
         style="fill:#e6f7ff;fill-opacity:1;fill-rule:nonzero;stroke:none"
         id="path60" /><path
         d="M 22368.3,9323.1 H 22193 v 3924.2 h 175.3 V 9323.1"
         style="fill:#e6f7ff;fill-opacity:1;fill-rule:nonzero;stroke:none"
         id="path62" /><path
         d="m 23406.4,9323.1 h -175.3 v 3924.2 h 175.3 V 9323.1"
         style="fill:#e6f7ff;fill-opacity:1;fill-rule:nonzero;stroke:none"
         id="path64" /><path
         d="m 5073.26,6892.4 h 18777.9 v 2217 H 5073.26 Z"
         style="fill:#efceb4;fill-opacity:1;fill-rule:nonzero;stroke:none"
         id="path66" /><path
         d="M 0.0078125,0 H 23851.208 V 6904.9 H 0.0078125 Z"
         style="fill:#e6f7ff;fill-opacity:1;fill-rule:nonzero;stroke:none"
         id="path68" /><path
         d="M 23851.2,3856.4 13602.1,0 h 10249.1 v 3856.4"
         style="fill:#70c0fd;fill-opacity:1;fill-rule:nonzero;stroke:none"
         id="path70" /><path
         d="M 9196.05,1393.8 H 0.00390625 v 385 H 9196.05 c 51.25,0 92.81,-41.6 92.81,-92.8 v -199.4 c 0,-51.2 -41.56,-92.8 -92.81,-92.8"
         style="fill:#07085b;fill-opacity:1;fill-rule:nonzero;stroke:none"
         id="path72" /><path
         d="M 0.0078125,0 H 9015.6478 V 1393.8 H 0.0078125 Z"
         style="fill:#70c0fd;fill-opacity:1;fill-rule:nonzero;stroke:none"
         id="path74" /><path
         d="M 0.0078125,6892.2 H 23851.208 v 2217 H 0.0078125 Z"
         style="fill:#70c0fd;fill-opacity:1;fill-rule:nonzero;stroke:none"
         id="path76" /><path
         d="M 0.0078125,8888.1 H 23851.208 v 442.598 H 0.0078125 Z"
         style="fill:#e6f7ff;fill-opacity:1;fill-rule:nonzero;stroke:none"
         id="path78" /><path
         d="M 23851.2,13408.1 H 0.00390625 v -221.3 H 23851.2 v 221.3"
         style="fill:#e6f7ff;fill-opacity:1;fill-rule:nonzero;stroke:none"
         id="path80" /><path
         d="M 0.00390625,7245.9 H 23851.2 V 6873.8 H 0.00390625 v 372.1"
         style="fill:#c4e3f8;fill-opacity:1;fill-rule:nonzero;stroke:none"
         id="path82" /><path
         d="M 18956.7,12819.2 18183,13571 c 0,0 -1599.9,-7449.1 -6822.1,-7383.7 -5222.28,-65.4 -5286.75,7354.3 -5286.75,7354.3 l -773.67,-751.8 -685.01,-7258.7 h 6745.43 l 8280.8,29.4 -685,7258.7"
         style="fill:#afdbfe;fill-opacity:1;fill-rule:nonzero;stroke:none"
         id="path84" /><path
         d="m 21116.6,5531.3 h -2917.4 v 8010.5 h 2917.4 V 5531.3"
         style="fill:#4188e4;fill-opacity:1;fill-rule:nonzero;stroke:none"
         id="path86" /><path
         d="M 6078.43,5531.3 H 3161.07 v 8010.5 H 6078.43 V 5531.3"
         style="fill:#4188e4;fill-opacity:1;fill-rule:nonzero;stroke:none"
         id="path88" /><path
         d="m 17220,13038.2 c 24.5,-39.7 76.8,-51.9 116.6,-27.3 39.9,24.5 52.2,76.6 27.6,116.3 -24.5,39.7 -76.8,51.9 -116.6,27.4 -39.8,-24.6 -52.2,-76.7 -27.6,-116.4"
         style="fill:#efceb4;fill-opacity:1;fill-rule:nonzero;stroke:none"
         id="path90" /><path
         d="m 17292.1,13034.9 c -16.1,0 -31.7,8.1 -40.8,22.7 -13.9,22.4 -6.9,51.8 15.7,65.7 7.8,4.9 16.5,7.2 25.1,7.2 16.1,0 31.7,-8.1 40.8,-22.7 13.9,-22.4 6.9,-51.8 -15.6,-65.7 -7.9,-4.9 -16.6,-7.2 -25.2,-7.2"
         style="fill:#e0a67f;fill-opacity:1;fill-rule:nonzero;stroke:none"
         id="path92" /><path
         d="m 18832.7,14023.6 c 24.5,-39.7 76.8,-51.9 116.6,-27.4 39.8,24.6 52.2,76.7 27.6,116.4 -24.5,39.7 -76.8,51.9 -116.6,27.3 -39.9,-24.5 -52.2,-76.6 -27.6,-116.3"
         style="fill:#efceb4;fill-opacity:1;fill-rule:nonzero;stroke:none"
         id="path94" /><path
         d="m 18904.8,14020.3 c -16.1,0 -31.7,8.1 -40.8,22.6 -13.9,22.5 -6.9,51.9 15.6,65.8 7.9,4.9 16.6,7.2 25.2,7.2 16.1,0 31.7,-8.1 40.8,-22.7 13.9,-22.4 6.9,-51.8 -15.7,-65.7 -7.8,-4.9 -16.5,-7.2 -25.1,-7.2"
         style="fill:#e0a67f;fill-opacity:1;fill-rule:nonzero;stroke:none"
         id="path96" /><path
         d="m 17123.6,13053.7 1946.4,1200.2 c 43.2,26.7 74.1,70.3 84.8,119.8 l 27.9,129.2 c 4.6,21.2 -8.9,42.1 -30.2,46.7 -21.3,4.5 -42.3,-9 -46.9,-30.3 l -27.9,-129.2 c -6.2,-28.6 -24.1,-53.9 -49.1,-69.4 l -1946.4,-1200.2 c -33.4,-20.6 -73.6,-27.1 -111.8,-18.2 l -119.5,28 c -21.1,5 -42.4,-8.1 -47.4,-29.2 -5,-21.2 8.1,-42.3 29.3,-47.3 l 119.4,-28 c 58.5,-13.7 120.2,-3.7 171.4,27.9"
         style="fill:#4f4343;fill-opacity:1;fill-rule:nonzero;stroke:none"
         id="path98" /><path
         d="m 15037.3,14522.2 c 2.2,8.5 85.3,48.7 81.9,53.3 -3.3,4.6 -93.5,-27.7 -97.1,-15.4 -3.7,12.3 96.2,44.4 89.3,52.9 -6.8,8.6 -108.4,-26.9 -109.9,-15.1 -1.3,9.9 111.3,52.3 147.2,65.5 4.6,1.8 5.4,7.9 1.5,10.8 -61.1,45.1 -63.2,52.1 -56.7,57.7 4.6,3.9 70.1,-17.9 132.5,-34.8 l 76.1,-22.7 0.4,-0.1 c -5.8,-35.5 -12.3,-74.2 -18.4,-110.6 h -0.8 c -14.6,-7.2 -53.6,-23.6 -53.6,-23.6 -157.5,-61.3 -140.4,-57.6 -143.6,-52.3 -3.2,5.4 54.3,49 48.6,53.5 -5.7,4.5 -99.6,-27.6 -97.4,-19.1"
         style="fill:#ffc0bb;fill-opacity:1;fill-rule:nonzero;stroke:none"
         id="path100" /><path
         d="m 17707.1,16382.3 c -8.7,-1.6 -54.6,-81.5 -59,-77.9 -4.4,3.7 34.2,91.2 22.1,95.7 -12,4.5 -51,-92.8 -59.1,-85.3 -8.1,7.5 34.5,106.1 22.8,108.5 -9.7,1.9 -60,-107.3 -75.8,-142.1 -2,-4.5 -8.2,-4.9 -10.9,-0.7 -40.7,64 -47.6,66.6 -53.6,60.5 -4.3,-4.3 24.6,-71.7 37.2,-135.1 l 5.7,-76.7 v -0.4 c 35.9,3.3 44.5,-53.1 81.4,-49.5 l 30.5,60.9 c 8.2,14 27.3,51.7 27.3,51.7 72.3,152.6 67.4,135.9 62.3,139.4 -5.1,3.5 -52.7,-50.6 -56.8,-44.7 -4.1,6 34.6,97.2 25.9,95.7"
         style="fill:#ffc0bb;fill-opacity:1;fill-rule:nonzero;stroke:none"
         id="path102" /><path
         d="m 16771,15356.3 c 0,0 90.9,138.9 196,199.1 105.1,60.3 271.8,182.4 271.8,182.4 l 293.2,455.9 c 0,0 58.2,-24.8 112.1,-68.5 0,0 -136,-482.8 -207.4,-570.4 -71.3,-87.6 -323.7,-218.6 -323.7,-218.6 0,0 -3,-183.3 -17.1,-319.8 -8.7,-84.5 26.9,-167.3 94.1,-219.2 l 164.2,-126.7 -46.4,-331.7 -238.9,-141.9 -687.2,434.4 c 0,0 -734.8,-187.2 -1103.2,-89.7 0,0 -23.5,108.6 2.7,154.5 0,0 603.7,19.4 953.6,283.9 0,0 364.4,364.6 536.2,376.3"
         style="fill:#07085b;fill-opacity:1;fill-rule:nonzero;stroke:none"
         id="path104" /><path
         d="m 16673.3,15226 v 0 l -75,149 149.2,71.4 92.2,-117.6 c 0,0 -39.2,-135.7 -166.4,-102.8"
         style="fill:#ffc0bb;fill-opacity:1;fill-rule:nonzero;stroke:none"
         id="path106" /><path
         d="m 16647.2,15843.9 89.7,-104.8 -168.4,82.7 c 0,0 18.1,69.3 28.6,64.1 10.5,-5.2 50.1,-42 50.1,-42"
         style="fill:#07085b;fill-opacity:1;fill-rule:nonzero;stroke:none"
         id="path108" /><path
         d="m 16809.1,15367.8 -61.6,78.6 -149.2,-71.4 36.9,-73.1 c 44.8,-10.6 112.6,-8.6 173.9,65.9"
         style="fill:#f99893;fill-opacity:1;fill-rule:nonzero;stroke:none"
         id="path110" /><path
         d="m 16709.3,15709.3 c 11.5,-26.3 38,-40 59.1,-30.8 21.1,9.3 28.7,38.2 17.2,64.4 -11.6,26.3 -38.1,40.1 -59.2,30.8 -21,-9.3 -28.7,-38.1 -17.1,-64.4"
         style="fill:#f99893;fill-opacity:1;fill-rule:nonzero;stroke:none"
         id="path112" /><path
         d="m 16815.9,15595.7 c -3.6,12.8 -8.5,25.2 -14.5,37.3 -15.8,32.9 -37.4,62.8 -58.1,87 -4.4,5.2 -8.5,10.7 -12.6,16.2 -16.2,22.3 -37,42.2 -62.8,58.2 -82.9,51.4 -191.9,42.1 -264.9,-22.8 -98.3,-87.5 -99.3,-237.2 -7.4,-326 -15.2,-4.7 -27.4,-14.7 -32.5,-28.8 -9.9,-27.1 9.6,-59.1 43.6,-71.4 33.9,-12.3 69.5,-0.3 79.4,26.9 1.4,3.7 2.1,7.6 2.4,11.5 86,-67.6 208.6,-61.8 281.8,16.3 35.9,38.2 53.6,87.1 53.8,136.5 0.2,3.1 0.3,6.5 0.2,10.3 -0.6,16.5 -3.6,32.9 -8.4,48.8"
         style="fill:#ffc0bb;fill-opacity:1;fill-rule:nonzero;stroke:none"
         id="path114" /><path
         d="m 16583.7,15642.8 c 10,-8 19.5,-15.9 29.2,-23.3 9.6,-7.1 20.1,-14.4 29.6,-16.2 l 1.7,-0.1 c 0.6,-0.1 0.8,-0.2 2,-0.2 2,-0.2 3.9,0 5.9,-0.5 3.8,-0.8 7.8,-2.4 11,-5.1 6.6,-5.2 9.5,-13.5 9.4,-20.7 -0.1,-14.8 -9,-26.6 -19.2,-33.9 6.4,10.9 10.9,22.7 9.2,33.2 -1,5.1 -3,9.6 -6.7,11.8 -1.8,1.2 -3.8,2 -6,2.3 -1.1,0.3 -2.4,0.1 -3.5,0.2 l -2.7,0.2 -3,0.2 c -7.8,1.4 -13.8,4.9 -19.4,8.6 -5.5,3.8 -10.4,8.1 -14.9,12.7 -8.9,9.3 -16.7,19.4 -22.6,30.8"
         style="fill:#f99893;fill-opacity:1;fill-rule:nonzero;stroke:none"
         id="path116" /><path
         d="m 16548.6,15575.7 c 7.8,-7.3 8.2,-19.6 0.9,-27.4 -7.4,-7.8 -19.7,-8.2 -27.5,-0.9 -7.8,7.3 -8.2,19.5 -0.9,27.4 7.4,7.8 19.7,8.2 27.5,0.9"
         style="fill:#333333;fill-opacity:1;fill-rule:nonzero;stroke:none"
         id="path118" /><path
         d="m 16670.7,15690 c 7.8,-7.3 8.2,-19.6 0.9,-27.4 -7.4,-7.9 -19.7,-8.3 -27.5,-1 -7.8,7.3 -8.2,19.6 -0.9,27.4 7.4,7.9 19.7,8.3 27.5,1"
         style="fill:#333333;fill-opacity:1;fill-rule:nonzero;stroke:none"
         id="path120" /><path
         d="m 16627.5,15465.9 c 6.7,1 13.3,2.4 19.7,4.3 6.5,1.8 12.8,4 18.9,6.7 12.1,5.3 23.6,12.3 33.3,21.2 9.7,8.8 17.5,19.7 23.2,31.6 5.5,12 9,25.1 11,38.4 0,-6.8 -0.6,-13.5 -1.8,-20.2 -1.1,-6.8 -3.2,-13.3 -5.6,-19.7 -2.6,-6.4 -5.9,-12.5 -9.8,-18.3 -4,-5.6 -8.5,-10.8 -13.6,-15.6 -10.3,-9.3 -22.4,-16.4 -35.3,-21 -12.8,-4.7 -26.4,-7.5 -40,-7.4"
         style="fill:#f99893;fill-opacity:1;fill-rule:nonzero;stroke:none"
         id="path122" /><path
         d="m 16531,15622.6 c -8.7,-5.5 -16.5,-11.1 -23.6,-17.2 -7,-6 -13.1,-12.7 -18,-20.1 -4.7,-7.4 -9,-15.3 -11.6,-24.2 -1.8,-4.3 -2.3,-9 -3.8,-13.7 -1.2,-4.7 -1.7,-9.6 -3.3,-14.7 -1.8,4.8 -3.3,9.8 -4.2,14.9 -0.5,5.2 -1.3,10.5 -0.5,15.8 0.6,10.7 4.8,21.3 10.8,30.4 6,9.1 14.5,16.6 23.9,21.5 9.5,4.9 19.9,7.9 30.3,7.3"
         style="fill:#07085b;fill-opacity:1;fill-rule:nonzero;stroke:none"
         id="path124" /><path
         d="m 16593.9,15681.5 c -0.2,10.4 3.2,20.7 8.4,30 5.3,9.2 13,17.4 22.4,23.1 9.3,5.7 20.1,9.4 30.8,9.6 5.3,0.7 10.6,-0.4 15.8,-0.9 5.1,-1.1 10.1,-2.8 14.8,-4.8 -5.2,-1.4 -10.1,-1.7 -14.9,-2.7 -4.7,-1.4 -9.4,-1.7 -13.8,-3.4 -9,-2.3 -17,-6.2 -24.6,-10.7 -7.6,-4.7 -14.5,-10.4 -20.8,-17.3 -6.4,-6.8 -12.2,-14.4 -18.1,-22.9"
         style="fill:#07085b;fill-opacity:1;fill-rule:nonzero;stroke:none"
         id="path126" /><path
         d="m 16551.6,15930.6 c 0,0 44,48.4 -42.6,31.9 -86.5,-16.4 -255.4,-114.6 -284.5,-244.6 0,0 -53.5,14.5 -66.6,-19.2 -13,-33.7 49.8,-13.2 49.8,-13.2 0,0 -29.3,-32.2 -21.7,-56.2 5.6,-17.6 23.5,2.2 32.4,13.7 -12.9,-21.5 -28.9,-132.7 148,-220.3 8.1,15.3 -35.8,179.4 -35.8,179.4 0,0 236.9,88.7 148.4,135.2 0,0 257.4,81.8 146.5,133.4 0,0 62.4,63.2 -73.9,59.9"
         style="fill:#07085b;fill-opacity:1;fill-rule:nonzero;stroke:none"
         id="path128" /><path
         d="m 16367.1,15421.8 c 0,0 7,18.1 31.7,22.9 24.6,4.9 65,-32.2 65,-32.2 0,0 107.1,32.3 -94.4,190.5 -214.4,168.3 -34.3,-73.8 -34.3,-73.8 l 32,-107.4"
         style="fill:#07085b;fill-opacity:1;fill-rule:nonzero;stroke:none"
         id="path130" /><path
         d="m 18380.6,14075.2 83.7,-99.9 c 6.9,-8.2 19.3,-9.3 27.5,-2.4 l 235.2,196.3 c 17,14.2 5,41.7 -17,38.8 l -223.5,-28 c 0,0 1.3,-79.3 -105.9,-104.8"
         style="fill:#feb546;fill-opacity:1;fill-rule:nonzero;stroke:none"
         id="path132" /><path
         d="m 16894.5,14271.3 c 0,0 248.1,112 313.4,137.3 0,0 101.6,275.7 224.9,399.5 123.3,123.8 216.2,182.8 366.2,105.8 150,-76.9 722.7,-720.6 722.7,-720.6 l -131.8,-161.7 c 0,0 -414.6,246.9 -722.2,474 0,0 211.6,-698.7 -329.8,-622.7 -541.3,76 -443.4,388.4 -443.4,388.4"
         style="fill:#e03268;fill-opacity:1;fill-rule:nonzero;stroke:none"
         id="path134" /><path
         d="m 17288.1,13806.4 c 0,0 43,-57.3 79.2,-109 36.2,-51.8 79.3,-165.5 49.9,-186 -51.9,-36.2 -225.9,93.7 -294.5,160.6 -68.7,66.9 165.4,134.4 165.4,134.4"
         style="fill:#feb546;fill-opacity:1;fill-rule:nonzero;stroke:none"
         id="path136" /><path
         d="m 16371,14494.5 c -5.9,10.8 -47.4,161.6 96.8,201.3 144.3,39.6 872.7,-797.7 872.7,-797.7 0,0 -25.1,-236.9 -294.2,-264.8 0,0 -508.3,557.9 -675.3,861.2"
         style="fill:#ff5b7e;fill-opacity:1;fill-rule:nonzero;stroke:none"
         id="path138" /><path
         d="m 1301.33,10505.1 c 0,0 2158.38,-5165.1 5996.42,-5470.4 H 1301.33 c 0,0 -648.771,2409 -648.771,2572.1 0,163.1 648.771,2898.3 648.771,2898.3"
         style="fill:#afdbfe;fill-opacity:1;fill-rule:nonzero;stroke:none"
         id="path140" /><path
         d="M 1301.33,5034.7 H 0.00390625 v 5470.4 H 1301.33 V 5034.7"
         style="fill:#4188e4;fill-opacity:1;fill-rule:nonzero;stroke:none"
         id="path142" /><path
         d="m 0,1010.5 v 0 56.2 l 0.0078125,-56.2"
         style="fill:#a0c3f2;fill-opacity:1;fill-rule:nonzero;stroke:none"
         id="path144" /><path
         d="m 8557.56,0 h -56.34 V 1010.5 H 5040.63 c -22.43,6.6 -45.69,9.9 -69.04,9.9 -23.11,0 -46.3,-3.3 -68.82,-9.9 H 0 l 0.0078125,56.2 H 8557.56 V 0"
         style="fill:#58a4f0;fill-opacity:1;fill-rule:nonzero;stroke:none"
         id="path146" /><path
         d="m 23497.5,0 h -75.1 V 3089.4 L 15511,0 h -206.1 l 8192.6,3199.2 V 0"
         style="fill:#58a4f0;fill-opacity:1;fill-rule:nonzero;stroke:none"
         id="path148" /><path
         d="M 23851.2,5309.1 15062.9,1780.5 c -318,-127.7 -523.5,-430.9 -523.5,-772.4 V 339.203 l 236.1,82.399 0.5,586.498 c 0,244.9 147.3,462.3 375.4,553.9 l 8699.8,3493 v 254.1"
         style="fill:#07085b;fill-opacity:1;fill-rule:nonzero;stroke:none"
         id="path150" /><path
         d="m 11298.6,5798.1 -185.6,-82.6 c 0,0 112.8,-364.9 408.7,-510 296,-145 1357.6,-481.9 1357.6,-481.9 0,0 140.9,112.3 61.1,219.9 l -1083.9,603.6 c 0,0 -269,196.5 -358.3,449.1 -89.2,252.7 -199.6,-198.1 -199.6,-198.1"
         style="fill:#ffc0bb;fill-opacity:1;fill-rule:nonzero;stroke:none"
         id="path152" /><path
         d="m 10258.4,5822.9 -300.67,-6 c 0,0 -204.3,-554.8 -60.85,-850.6 143.42,-295.8 785.82,-1178.4 785.82,-1178.4 0,0 167.7,-86.9 207.7,39.4 l -600.8,1373.6 c 0,0 -8.2,148.9 77.7,402.7 86,253.7 -108.9,219.3 -108.9,219.3"
         style="fill:#ffc0bb;fill-opacity:1;fill-rule:nonzero;stroke:none"
         id="path154" /><path
         d="m 10797,6481.2 -331.9,-901.4 c 0,0 -416.6,90.5 -613.85,184 0,0 137.8,502.2 313.15,857.8 175.4,355.5 357,299.4 357,299.4 l 275.6,-439.8"
         style="fill:#041833;fill-opacity:1;fill-rule:nonzero;stroke:none"
         id="path156" /><path
         d="m 11248,6858.6 388.3,-867.1 c 0,0 -328.8,-321.2 -551.2,-427.3 0,0 -306.9,430.5 -382,614.5 0,0 -332,330.6 -479.2,436.6 -132.4,95.5 1024.1,243.3 1024.1,243.3"
         style="fill:#07085b;fill-opacity:1;fill-rule:nonzero;stroke:none"
         id="path158" /><path
         d="m 11810.8,7138.1 5.3,30.8 c -1.8,124.5 -13.2,833.8 -38.9,859.4 -28.2,28 -346.8,99 -346.8,99 l 213.7,243.3 c 0,0 303,-79.6 368.8,-168.5 64.2,-86.7 -2.8,-844.2 -65,-1069.9 l -3.3,-22 c 8,-17.9 26.1,-65.9 26.1,-65.9 67,-193.4 63.3,-172.6 56.6,-176.2 -6.6,-3.6 -57,67.9 -62.7,61.3 -5.7,-6.7 28.8,-121.8 18.6,-118.7 -10.3,3 -55.2,105.4 -61,101.6 -5.8,-3.9 29.2,-114.5 14,-118.3 -15.1,-3.9 -49.3,118.5 -60,110.6 -10.8,-8 27.4,-132.5 13.1,-133.8 -12.1,-1.1 -58.3,137.1 -72.7,181.2 -1.8,5.7 -9.3,6.9 -13.1,2.3 -57.7,-71.9 -66.4,-74.1 -72.9,-65.9 -4.6,5.7 25.2,83.9 48.8,158.6 l 31.4,91.1"
         style="fill:#ffc0bb;fill-opacity:1;fill-rule:nonzero;stroke:none"
         id="path160" /><path
         d="m 8940.15,8242.6 26.22,-17.2 c 115.22,-48.3 772.17,-322.2 806.03,-309 37.12,14.5 230.1,276.8 230.1,276.8 l 138.1,-292.6 c 0,0 -194.58,-244.5 -302.71,-268.9 -105.52,-23.8 -775.5,340.9 -958.15,488.1 l -18.86,11.9 c -19.78,-0.2 -71.17,2.6 -71.17,2.6 -204.74,16.4 -184.12,11.4 -184.76,18.9 -0.63,7.5 85.34,24.8 81.51,32.7 -3.83,7.9 -123.53,22.5 -116.61,30.6 6.92,8.2 119.06,8.1 117.85,14.9 -1.21,6.8 -116.92,19.3 -114.41,34.6 2.51,15.4 128.81,-2.5 125.82,10.5 -3,13 -132.86,28.1 -128.31,41.7 3.83,11.5 149.5,-1.8 195.76,-6.3 5.97,-0.6 10.16,5.7 7.37,11 -42.93,81.5 -41.47,90.3 -31.42,92.9 7.16,1.9 67.17,-56.6 126.44,-108.1 l 71.2,-65.1"
         style="fill:#ffc0bb;fill-opacity:1;fill-rule:nonzero;stroke:none"
         id="path162" /><path
         d="m 12951.3,4947.4 192.1,-97.9 c 15.9,-8.1 22.2,-27.5 14.1,-43.3 l -230.6,-448.9 c -16.7,-32.5 -65.5,-23.2 -69,13.1 l -36.9,368.9 c 0,0 128.5,26.8 130.3,208.1"
         style="fill:#041833;fill-opacity:1;fill-rule:nonzero;stroke:none"
         id="path164" /><path
         d="m 10890.4,3827.3 6.8,-214.9 c 0.6,-17.7 -13.4,-32.6 -31.3,-33.1 l -506,-16 c -36.6,-1.1 -52,46 -21.8,66.5 l 306.4,210.5 c 0,0 85.7,-99 245.9,-13"
         style="fill:#041833;fill-opacity:1;fill-rule:nonzero;stroke:none"
         id="path166" /><path
         d="m 11028.2,9259.7 c 0,0 74.1,291.9 -102.5,401.3 -176.7,109.3 -363.9,97.1 -491.4,31.6 -127.5,-65.5 -203.9,-293.9 -146.7,-424.4 l 423.3,124.6 317.3,-133.1"
         style="fill:#ff5b7e;fill-opacity:1;fill-rule:nonzero;stroke:none"
         id="path168" /><path
         d="m 10793.1,8715.7 -284,-5.6 c 5.8,60.5 10.7,140.6 0.2,169.5 -17.7,48.8 298.7,56.1 298.7,56.1 0,0 -16.8,-125.2 -14.9,-220"
         style="fill:#ffc0bb;fill-opacity:1;fill-rule:nonzero;stroke:none"
         id="path170" /><path
         d="m 10808,8935.7 c 0,0 -6.8,-50.6 -11.3,-111.8 -57.6,-44.7 -132.1,-67.6 -209.7,-58 -25.5,3.2 -49.8,9.7 -72.4,19.1 1.8,39.9 1.2,76.9 -5.3,94.6 -17.7,48.8 298.7,56.1 298.7,56.1"
         style="fill:#f99893;fill-opacity:1;fill-rule:nonzero;stroke:none"
         id="path172" /><path
         d="m 10342.6,9216.6 c 15.1,-39.2 0.7,-80.5 -32,-92 -32.8,-11.6 -71.5,10.9 -86.6,50.2 -15.1,39.2 -0.7,80.4 32,92 32.8,11.6 71.5,-10.9 86.6,-50.2"
         style="fill:#f99893;fill-opacity:1;fill-rule:nonzero;stroke:none"
         id="path174" /><path
         d="m 10346.1,8989.6 c -9.5,17.1 -17.4,35.1 -23.5,53.9 -17.5,50.4 -25.4,103.7 -28.4,150 -0.7,9.9 -1.9,19.8 -3.3,29.6 -5.9,39.8 -4.2,81.8 7,124.6 36.2,137.8 164.8,238.2 312.8,243.9 199.4,7.6 358.3,-148.4 351.7,-334.6 21.5,10.5 45.3,12.3 65.8,2.7 39.4,-18.5 51.8,-71.8 27.8,-119 -24.1,-47.3 -75.6,-70.6 -115,-52.1 -5.4,2.5 -10.3,5.8 -14.7,9.6 -22.5,-157.9 -162.2,-275.7 -324.4,-267.8 -79.4,3.9 -150.1,37.2 -202.4,88.8 -3.5,3.1 -7.2,6.6 -11,10.7 -16.9,17.9 -30.8,38.2 -42.4,59.7"
         style="fill:#ffc0bb;fill-opacity:1;fill-rule:nonzero;stroke:none"
         id="path176" /><path
         d="m 10778.2,8763.8 c 0,0 84.6,16.2 187.9,-19.7 103.4,-35.9 736,-285.4 736,-285.4 0,0 13.1,-311.6 -99.6,-411.4 0,0 -307.2,-10.1 -467.3,46.5 0,0 -97.1,-380.6 -147.2,-489.7 0,0 256.8,-530.3 310.1,-745.5 0,0 -37.6,-208.9 -306.9,-230.8 -245.7,-19.9 -673.6,-11.3 -868.2,-104.2 -23.6,-11.3 -51,4.6 -51.9,30.7 -5.2,147.8 -12.8,531.6 36.9,759.7 62.7,287 106.5,539.6 106.5,539.6 0,0 -316.27,90.4 -366.38,252.6 0,0 339.68,678.8 669.38,657.6 329.6,-21.3 260.7,0 260.7,0"
         style="fill:#ffcc68;fill-opacity:1;fill-rule:nonzero;stroke:none"
         id="path178" /><path
         d="m 10649.6,9212.5 c -0.9,-16.8 12.5,-31.1 30,-31.9 17.5,-0.9 32.4,12 33.3,28.8 0.9,16.8 -12.6,31.1 -30.1,31.9 -17.4,0.9 -32.3,-12 -33.2,-28.8"
         style="fill:#333333;fill-opacity:1;fill-rule:nonzero;stroke:none"
         id="path180" /><path
         d="m 10389.3,9212.5 c -0.9,-16.8 12.6,-31.1 30.1,-31.9 17.5,-0.9 32.3,12 33.2,28.8 0.9,16.8 -12.5,31.1 -30,31.9 -17.5,0.9 -32.4,-12 -33.3,-28.8"
         style="fill:#333333;fill-opacity:1;fill-rule:nonzero;stroke:none"
         id="path182" /><path
         d="m 10622.9,9263.2 c 14.4,7.3 29.4,12.8 44.6,16.4 15.3,3.5 30.9,4.8 46.3,3.4 7.6,-0.6 15.2,-2.1 22.6,-4.1 3.8,-0.9 7.4,-2.2 11.1,-3.5 1.8,-0.6 3.6,-1.4 5.4,-2.1 1.8,-0.7 3.6,-1.4 5.4,-2.2 14.1,-6.5 27.5,-15 40.5,-24.5 -9.6,12.7 -22,23.6 -36.3,31.9 -7.2,4.2 -14.8,7.7 -22.9,10.3 -8,2.6 -16.3,4.3 -24.8,5.1 -16.9,1.5 -34.1,-0.7 -49.8,-6.2 -7.9,-2.6 -15.4,-6.1 -22.5,-10.1 -7.1,-4.1 -13.8,-8.8 -19.6,-14.4"
         style="fill:#ff5b7e;fill-opacity:1;fill-rule:nonzero;stroke:none"
         id="path184" /><path
         d="m 10495.1,9263.2 c -5.7,5.6 -12.5,10.3 -19.5,14.4 -7.2,4 -14.7,7.5 -22.6,10.1 -15.7,5.5 -32.9,7.7 -49.8,6.2 -8.4,-0.8 -16.8,-2.5 -24.8,-5.1 -8,-2.6 -15.7,-6.1 -22.8,-10.3 -14.3,-8.3 -26.7,-19.2 -36.4,-31.9 13,9.5 26.4,18 40.6,24.5 1.7,0.8 3.5,1.5 5.3,2.2 1.8,0.7 3.6,1.5 5.4,2.1 3.7,1.3 7.3,2.6 11.1,3.5 7.4,2 15,3.5 22.7,4.1 15.3,1.4 30.9,0.1 46.2,-3.4 15.2,-3.6 30.2,-9.1 44.6,-16.4"
         style="fill:#ff5b7e;fill-opacity:1;fill-rule:nonzero;stroke:none"
         id="path186" /><path
         d="m 10962.4,9257 c 0,0 -229.6,89 -351.7,224.3 0,0 2.7,-74.2 28.4,-100.2 -8.1,-5.2 -166.7,55.4 -203.5,171.8 -36.7,116.5 180.5,71.6 180.5,71.6 0,0 123.4,19.5 128.9,16.9 5.4,-2.6 93.6,-53.3 97.7,-57.2 4,-4 119.7,-161.4 119.7,-161.4 l 29.5,-58.6 6.8,-80.7 -36.3,-26.5"
         style="fill:#ff5b7e;fill-opacity:1;fill-rule:nonzero;stroke:none"
         id="path188" /><path
         d="m 10649.5,9054.7 c -7,-5.4 -14.3,-10.4 -22.1,-14.9 -7.6,-4.5 -15.4,-8.6 -23.6,-12 -16.3,-6.8 -33.4,-11.7 -51,-13.1 -17.5,-1.5 -35.3,0.6 -52.2,5.6 -16.9,5.2 -32.9,13.3 -47.9,22.9 6.7,-5.8 13.9,-11.2 21.6,-15.9 7.7,-4.7 16,-8.5 24.6,-11.8 8.6,-3.1 17.6,-5.3 26.8,-6.6 9.1,-1.1 18.4,-1.4 27.7,-0.7 18.4,1.6 36.4,6.9 52.7,15.1 16.2,8.1 31.2,18.5 43.4,31.4"
         style="fill:#f99893;fill-opacity:1;fill-rule:nonzero;stroke:none"
         id="path190" /><path
         d="m 10532.3,9226.5 c -8.9,-13.8 -16.5,-28.3 -23.4,-43.1 -6.9,-14.8 -13,-30 -17.7,-45.7 -2.2,-8 -4.2,-16.1 -4.7,-24.7 -0.1,-2.3 -0.1,-4.5 0.2,-6.9 0.1,-1.1 0.5,-2.4 0.7,-3.6 0.6,-1.3 0.9,-2.6 1.9,-4 l 1.6,-1.9 1.3,-1.1 c 0.9,-0.7 1.7,-1.5 2.6,-2.1 1.9,-1.2 3.7,-2.5 5.6,-3.6 7.5,-4.4 15.5,-7.5 23.5,-10.2 8.1,-2.6 16.3,-4.9 24.6,-6.2 -15.2,6.9 -30.5,13.8 -43.6,22.9 -1.6,1.1 -3.1,2.3 -4.6,3.5 l -2,1.9 -1.1,1 -0.2,0.5 c -1,1.6 -1.2,5.6 -0.8,9.1 0.8,7.4 2.7,15.1 5,22.7 4.3,15.3 9.9,30.4 15.2,45.6 5.4,15.2 10.9,30.4 15.9,45.9"
         style="fill:#f99893;fill-opacity:1;fill-rule:nonzero;stroke:none"
         id="path192" /><path
         d="m 11028.2,9259.7 c 0,0 74.1,291.9 -102.5,401.3 -176.7,109.3 -363.9,97.1 -491.4,31.6 -127.5,-65.5 -203.9,-293.9 -146.7,-424.4 l 423.3,124.6 317.3,-133.1"
         style="fill:#07085b;fill-opacity:1;fill-rule:nonzero;stroke:none"
         id="path194" /><path
         d="m 10793.1,8715.7 -284,-5.6 c 5.8,60.5 10.7,140.6 0.2,169.5 -17.7,48.8 298.7,56.1 298.7,56.1 0,0 -16.8,-125.2 -14.9,-220"
         style="fill:#ffc0bb;fill-opacity:1;fill-rule:nonzero;stroke:none"
         id="path196" /><path
         d="m 10808,8935.7 c 0,0 -6.8,-50.6 -11.3,-111.8 -57.6,-44.7 -132.1,-67.6 -209.7,-58 -25.5,3.2 -49.8,9.7 -72.4,19.1 1.8,39.9 1.2,76.9 -5.3,94.6 -17.7,48.8 298.7,56.1 298.7,56.1"
         style="fill:#f99893;fill-opacity:1;fill-rule:nonzero;stroke:none"
         id="path198" /><path
         d="m 10342.6,9216.6 c 15.1,-39.2 0.7,-80.5 -32,-92 -32.8,-11.6 -71.5,10.9 -86.6,50.2 -15.1,39.2 -0.7,80.4 32,92 32.8,11.6 71.5,-10.9 86.6,-50.2"
         style="fill:#f99893;fill-opacity:1;fill-rule:nonzero;stroke:none"
         id="path200" /><path
         d="m 10346.1,8989.6 c -9.5,17.1 -17.4,35.1 -23.5,53.9 -17.5,50.4 -25.4,103.7 -28.4,150 -0.7,9.9 -1.9,19.8 -3.3,29.6 -5.9,39.8 -4.2,81.8 7,124.6 36.2,137.8 164.8,238.2 312.8,243.9 199.4,7.6 358.3,-148.4 351.7,-334.6 21.5,10.5 45.3,12.3 65.8,2.7 39.4,-18.5 51.8,-71.8 27.8,-119 -24.1,-47.3 -75.6,-70.6 -115,-52.1 -5.4,2.5 -10.3,5.8 -14.7,9.6 -22.5,-157.9 -162.2,-275.7 -324.4,-267.8 -79.4,3.9 -150.1,37.2 -202.4,88.8 -3.5,3.1 -7.2,6.6 -11,10.7 -16.9,17.9 -30.8,38.2 -42.4,59.7"
         style="fill:#ffc0bb;fill-opacity:1;fill-rule:nonzero;stroke:none"
         id="path202" /><path
         d="m 10649.6,9212.5 c -0.9,-16.8 12.5,-31.1 30,-31.9 17.5,-0.9 32.4,12 33.3,28.8 0.9,16.8 -12.6,31.1 -30.1,31.9 -17.4,0.9 -32.3,-12 -33.2,-28.8"
         style="fill:#333333;fill-opacity:1;fill-rule:nonzero;stroke:none"
         id="path204" /><path
         d="m 10389.3,9212.5 c -0.9,-16.8 12.6,-31.1 30.1,-31.9 17.5,-0.9 32.3,12 33.2,28.8 0.9,16.8 -12.5,31.1 -30,31.9 -17.5,0.9 -32.4,-12 -33.3,-28.8"
         style="fill:#333333;fill-opacity:1;fill-rule:nonzero;stroke:none"
         id="path206" /><path
         d="m 10622.9,9263.2 c 14.4,7.3 29.4,12.8 44.6,16.4 15.3,3.5 30.9,4.8 46.3,3.4 7.6,-0.6 15.2,-2.1 22.6,-4.1 3.8,-0.9 7.4,-2.2 11.1,-3.5 1.8,-0.6 3.6,-1.4 5.4,-2.1 1.8,-0.7 3.6,-1.4 5.4,-2.2 14.1,-6.5 27.5,-15 40.5,-24.5 -9.6,12.7 -22,23.6 -36.3,31.9 -7.2,4.2 -14.8,7.7 -22.9,10.3 -8,2.6 -16.3,4.3 -24.8,5.1 -16.9,1.5 -34.1,-0.7 -49.8,-6.2 -7.9,-2.6 -15.4,-6.1 -22.5,-10.1 -7.1,-4.1 -13.8,-8.8 -19.6,-14.4"
         style="fill:#07085b;fill-opacity:1;fill-rule:nonzero;stroke:none"
         id="path208" /><path
         d="m 10495.1,9263.2 c -5.7,5.6 -12.5,10.3 -19.5,14.4 -7.2,4 -14.7,7.5 -22.6,10.1 -15.7,5.5 -32.9,7.7 -49.8,6.2 -8.4,-0.8 -16.8,-2.5 -24.8,-5.1 -8,-2.6 -15.7,-6.1 -22.8,-10.3 -14.3,-8.3 -26.7,-19.2 -36.4,-31.9 13,9.5 26.4,18 40.6,24.5 1.7,0.8 3.5,1.5 5.3,2.2 1.8,0.7 3.6,1.5 5.4,2.1 3.7,1.3 7.3,2.6 11.1,3.5 7.4,2 15,3.5 22.7,4.1 15.3,1.4 30.9,0.1 46.2,-3.4 15.2,-3.6 30.2,-9.1 44.6,-16.4"
         style="fill:#07085b;fill-opacity:1;fill-rule:nonzero;stroke:none"
         id="path210" /><path
         d="m 10962.4,9257 c 0,0 -229.6,89 -351.7,224.3 0,0 2.7,-74.2 28.4,-100.2 -8.1,-5.2 -166.7,55.4 -203.5,171.8 -36.7,116.5 180.5,71.6 180.5,71.6 0,0 123.4,19.5 128.9,16.9 5.4,-2.6 93.6,-53.3 97.7,-57.2 4,-4 119.7,-161.4 119.7,-161.4 l 29.5,-58.6 36.3,-104.5 -65.8,-2.7"
         style="fill:#07085b;fill-opacity:1;fill-rule:nonzero;stroke:none"
         id="path212" /><path
         d="m 10547.2,8976.6 c -57.1,0 -70.1,50.6 -70.1,50.6 9.6,7 20.1,9.4 29.9,9.4 20.4,0 37.8,-10.4 37.8,-10.4 16.2,10.1 32.8,12.9 46.1,12.9 15.3,0 26.1,-3.7 26.1,-3.7 0,0 -1.7,-55 -63.9,-58.6 -2,-0.1 -4,-0.2 -5.9,-0.2"
         style="fill:#fda8a3;fill-opacity:1;fill-rule:nonzero;stroke:none"
         id="path214" /><path
         d="m 10649.5,9054.7 c -7,-5.4 -14.3,-10.4 -22,-14.9 -7.7,-4.5 -15.5,-8.6 -23.7,-12 -16.3,-6.8 -33.4,-11.7 -51,-13.1 -17.5,-1.5 -35.3,0.6 -52.2,5.6 -16.9,5.2 -32.9,13.3 -47.9,22.9 6.7,-5.8 13.9,-11.2 21.6,-15.9 7.7,-4.7 16,-8.5 24.6,-11.8 8.6,-3.1 17.6,-5.3 26.8,-6.6 9.1,-1.1 18.4,-1.4 27.7,-0.7 18.5,1.6 36.4,6.9 52.7,15.1 16.2,8.1 31.2,18.5 43.4,31.4"
         style="fill:#f99893;fill-opacity:1;fill-rule:nonzero;stroke:none"
         id="path216" /><path
         d="m 10532.3,9226.5 c -8.9,-13.8 -16.5,-28.3 -23.4,-43.1 -6.9,-14.8 -13,-30 -17.7,-45.7 -2.2,-8 -4.2,-16.1 -4.7,-24.7 -0.1,-2.3 -0.1,-4.5 0.2,-6.9 0.1,-1.1 0.5,-2.4 0.7,-3.6 0.6,-1.3 0.9,-2.6 1.9,-4 l 1.6,-1.9 1.3,-1.1 c 0.9,-0.7 1.7,-1.5 2.6,-2.1 1.9,-1.2 3.7,-2.5 5.6,-3.6 7.5,-4.4 15.5,-7.5 23.5,-10.2 8.1,-2.6 16.3,-4.9 24.6,-6.2 -15.2,6.9 -30.5,13.8 -43.6,22.9 -1.6,1.1 -3.1,2.3 -4.6,3.5 l -2,1.9 -1.1,1 -0.2,0.5 c -1,1.6 -1.2,5.6 -0.8,9.1 0.8,7.4 2.7,15.1 5,22.7 4.3,15.3 9.9,30.4 15.2,45.6 5.4,15.2 10.9,30.4 15.9,45.9"
         style="fill:#f99893;fill-opacity:1;fill-rule:nonzero;stroke:none"
         id="path218" /><path
         d="m 10793.1,8715.7 c 0,0 -94.9,-94.1 -284,-5.6 l 130.4,34 153.6,-28.4"
         style="fill:#ffc0bb;fill-opacity:1;fill-rule:nonzero;stroke:none"
         id="path220" /><path
         d="m 10342.9,8426.5 c -16.1,-19 -28.7,-40.8 -40.2,-62.8 -6,-11 -10.7,-22.6 -16,-33.9 -4.7,-11.5 -9.6,-23 -14,-34.7 -17.5,-46.8 -29.4,-95.4 -39,-144.3 -9.3,-48.9 -14.6,-98.5 -18.2,-148.2 -1.2,-24.8 -1.8,-49.7 -2.6,-74.5 0.5,-24.9 0.7,-49.7 1.6,-74.5 1.5,24.8 2.3,49.6 3.5,74.3 1.9,24.8 3.5,49.5 5.6,74.1 5.3,49.2 10.4,98.5 20.5,146.9 8.7,48.6 20.5,96.7 36.3,143.5 3.9,11.7 8.3,23.3 12.4,34.9 4.9,11.4 9.2,23 14.5,34.1 9.9,22.7 21.4,44.7 35.6,65.1"
         style="fill:#ffffff;fill-opacity:1;fill-rule:nonzero;stroke:none"
         id="path222" /><path
         d="m 10808,9675.1 c 0,0 129.9,246.4 349.1,299.4 219.3,53.1 563.7,-146.6 714.1,-299.4 150.3,-152.8 344.4,0 344.4,0 0,0 -34.4,-110.9 -150.3,-174 0,0 344.5,-44.7 457.2,-259.7 0,0 -219.2,109.3 -353.8,90.6 0,0 422.7,-277.7 194.1,-623.9 0,0 -37.5,380.6 -404,383.7 -366.4,3.2 -526.1,305.7 -657.6,386.8 -131.5,81.1 -419.6,22.5 -419.6,22.5 l -73.6,174"
         style="fill:#07085b;fill-opacity:1;fill-rule:nonzero;stroke:none"
         id="path224" /><path
         d="m 11605,8047.4 c -27.7,-0.5 -55.4,-0.6 -83,0.5 -27.6,0.6 -55.2,1.8 -82.8,3.9 -55,3.8 -110,9.4 -164.4,18.6 -54.4,8.9 -108.1,21.5 -160.8,37.3 -25.9,9.2 -52.5,17.2 -77.4,28.9 -25.9,9.7 -49.6,23.9 -74.4,36.3 46.2,-30.6 96.9,-54.2 149.2,-72.9 52.8,-17.6 107,-30.2 161.7,-40 54.9,-8.3 110.2,-14.1 165.7,-16.3 55.4,-2 111,-1.7 166.2,3.7"
         style="fill:#ffffff;fill-opacity:1;fill-rule:nonzero;stroke:none"
         id="path226" /><path
         d="m 9340.72,3399.7 c 0.26,-64.3 52.81,-116.2 117.36,-116 64.55,0.3 116.66,52.6 116.39,116.9 -0.26,64.3 -52.8,116.2 -117.35,116 -64.55,-0.3 -116.67,-52.6 -116.4,-116.9"
         style="fill:#efceb4;fill-opacity:1;fill-rule:nonzero;stroke:none"
         id="path228" /><path
         d="m 9457.59,3334.3 c -36.36,0 -65.91,29.3 -66.06,65.6 -0.15,36.3 29.31,65.9 65.8,66 0.09,0 0.19,0 0.28,0 36.36,0 65.9,-29.2 66.05,-65.5 0.15,-36.3 -29.3,-65.9 -65.79,-66.1 -0.09,0 -0.19,0 -0.28,0"
         style="fill:#e0a67f;fill-opacity:1;fill-rule:nonzero;stroke:none"
         id="path230" /><path
         d="m 11946.9,3399.7 c 0.3,-64.3 52.8,-116.2 117.4,-116 64.5,0.3 116.7,52.6 116.4,116.9 -0.3,64.3 -52.8,116.2 -117.4,116 -64.5,-0.3 -116.6,-52.6 -116.4,-116.9"
         style="fill:#efceb4;fill-opacity:1;fill-rule:nonzero;stroke:none"
         id="path232" /><path
         d="m 12063.8,3334.3 c -36.4,0 -65.9,29.3 -66.1,65.6 -0.1,36.3 29.4,65.9 65.8,66 0.1,0 0.2,0 0.3,0 36.4,0 65.9,-29.2 66.1,-65.5 0.1,-36.3 -29.3,-65.9 -65.8,-66.1 -0.1,0 -0.2,0 -0.3,0"
         style="fill:#e0a67f;fill-opacity:1;fill-rule:nonzero;stroke:none"
         id="path234" /><path
         d="m 9235.62,3465.9 3153.48,12.9 c 70,0.3 137.8,29.4 186,79.9 l 126,131.8 c 20.7,21.6 19.9,55.9 -1.8,76.5 -21.8,20.6 -56.2,19.8 -76.9,-1.9 l -126,-131.8 c -27.9,-29.2 -67.2,-46.1 -107.8,-46.3 l -3153.42,-12.8 c -54.12,-0.2 -106.11,21 -144.54,58.9 l -120.13,118.7 c -21.31,21.1 -55.72,20.9 -76.86,-0.3 -21.14,-21.2 -20.99,-55.5 0.31,-76.6 l 120.14,-118.6 c 58.89,-58.2 138.58,-90.7 221.52,-90.4"
         style="fill:#4188e4;fill-opacity:1;fill-rule:nonzero;stroke:none"
         id="path236" /><path
         d="m 10962.4,9257 c 0,0 40.6,18.6 65.8,2.7 25.2,-15.9 -17.3,-32.9 -19,-32.9 -1.7,0 -41,7.3 -42.4,8.7 -1.4,1.4 -4.4,21.5 -4.4,21.5"
         style="fill:#ffc0bb;fill-opacity:1;fill-rule:nonzero;stroke:none"
         id="path238" /><path
         d="m 18540.6,17072.2 c 52.1,226.5 255.2,395.4 498.1,395.4 44.6,0 87.8,-5.7 129,-16.4 119.8,255.7 379.9,432.9 681.5,432.9 78,0 153.2,-11.8 223.9,-33.8 162.4,268.2 457.4,447.6 794.4,447.6 400.9,0 742.4,-253.9 871.8,-609.3 91.6,50.9 197,80.1 309.4,80.1 351.4,0 636.3,-284.3 636.3,-634.9 0,-20.8 -1.1,-41.3 -3,-61.6 h -4141.4"
         style="fill:#ffffff;fill-opacity:1;fill-rule:nonzero;stroke:none"
         id="path240" /><path
         d="m 14672.9,18297.9 c 37,160.5 181,280.3 353.1,280.3 31.6,0 62.3,-4 91.5,-11.6 84.9,181.2 269.3,306.8 483.1,306.8 55.2,0 108.6,-8.4 158.7,-24 115.1,190.2 324.2,317.3 563,317.3 284.2,0 526.3,-179.9 618,-431.9 64.9,36.1 139.7,56.8 219.3,56.8 249.1,0 451,-201.5 451,-450 0,-14.8 -0.7,-29.3 -2.1,-43.7 h -2935.6"
         style="fill:#ffffff;fill-opacity:1;fill-rule:nonzero;stroke:none"
         id="path242" /><path
         d="m 17353.3,15452.6 c 26.1,113.4 127.9,198.1 249.5,198.1 22.4,0 44,-2.9 64.7,-8.3 60,128.2 190.3,216.9 341.4,216.9 39.1,0 76.8,-5.9 112.2,-16.9 81.3,134.4 229.1,224.2 397.9,224.2 200.9,0 372,-127.2 436.8,-305.2 45.9,25.5 98.7,40.1 155,40.1 176.1,0 318.8,-142.4 318.8,-318.1 0,-10.4 -0.6,-20.7 -1.5,-30.8 h -2074.8"
         style="fill:#ffffff;fill-opacity:1;fill-rule:nonzero;stroke:none"
         id="path244" /><path
         d="m 566.949,15559.3 c 26.121,113.5 127.895,198.1 249.543,198.1 22.336,0 43.996,-2.8 64.645,-8.2 60.047,128.1 190.343,216.9 341.453,216.9 39.06,0 76.74,-6 112.17,-17 81.34,134.4 229.13,224.3 397.95,224.3 200.87,0 371.95,-127.2 436.78,-305.3 45.89,25.5 98.71,40.1 154.98,40.1 176.06,0 318.79,-142.4 318.79,-318 0,-10.4 -0.54,-20.7 -1.52,-30.9 H 566.949"
         style="fill:#ffffff;fill-opacity:1;fill-rule:nonzero;stroke:none"
         id="path246" /><path
         d="m 8816.99,16649.5 c -35.97,156.2 -176.07,272.8 -343.55,272.8 -30.74,0 -60.56,-4 -88.99,-11.4 -82.66,176.4 -262.04,298.6 -470.06,298.6 -53.78,0 -105.64,-8.2 -154.42,-23.3 -111.98,185 -315.43,308.7 -547.85,308.7 -276.53,0 -512.05,-175.1 -601.29,-420.3 -63.17,35.2 -135.89,55.3 -213.35,55.3 -242.39,0 -438.88,-196.1 -438.88,-437.9 0,-14.3 0.75,-28.5 2.09,-42.5 h 2856.3"
         style="fill:#ffffff;fill-opacity:1;fill-rule:nonzero;stroke:none"
         id="path248" /><path
         d="m 2106.71,18404.6 c 47.02,204.2 230.18,356.5 449.12,356.5 40.2,0 79.18,-5.2 116.35,-14.8 108.06,230.6 342.58,390.3 614.53,390.3 70.31,0 138.11,-10.7 201.88,-30.5 146.41,241.9 412.38,403.6 716.24,403.6 361.51,0 669.42,-228.9 786.09,-549.4 82.59,46 177.66,72.3 278.93,72.3 316.88,0 573.76,-256.3 573.76,-572.5 0,-18.7 -0.97,-37.3 -2.74,-55.5 H 2106.71"
         style="fill:#ffffff;fill-opacity:1;fill-rule:nonzero;stroke:none"
         id="path250" /><path
         d="m 17382.3,1898.7 c -0.5,-135.4 -111.2,-244.8 -247.2,-244.2 -136,0.5 -245.8,110.8 -245.3,246.2 0.6,135.5 111.3,244.8 247.3,244.3 136,-0.6 245.8,-110.8 245.2,-246.3"
         style="fill:#efceb4;fill-opacity:1;fill-rule:nonzero;stroke:none"
         id="path252" /><path
         d="m 17136.1,1761.1 c -0.2,0 -0.4,0 -0.6,0 -76.9,0.3 -138.9,62.6 -138.6,139.2 0.3,76.4 62.5,138.1 139.2,138.1 0.2,0 0.3,0 0.5,0 76.9,-0.4 139,-62.7 138.7,-139.2 -0.4,-76.4 -62.6,-138.1 -139.2,-138.1"
         style="fill:#e0a67f;fill-opacity:1;fill-rule:nonzero;stroke:none"
         id="path254" /><path
         d="m 20838.7,3377.2 c -0.5,-135.5 -111.2,-244.8 -247.2,-244.3 -136,0.6 -245.8,110.8 -245.3,246.3 0.6,135.4 111.3,244.8 247.3,244.3 136,-0.6 245.8,-110.9 245.2,-246.3"
         style="fill:#efceb4;fill-opacity:1;fill-rule:nonzero;stroke:none"
         id="path256" /><path
         d="m 20592.5,3239.6 c -0.2,0 -0.4,0 -0.6,0 -76.9,0.3 -138.9,62.6 -138.6,139.2 0.3,76.3 62.6,138 139.1,138 0.2,0 0.4,0 0.6,0 76.9,-0.3 139,-62.6 138.7,-139.2 -0.4,-76.3 -62.6,-138 -139.2,-138"
         style="fill:#e0a67f;fill-opacity:1;fill-rule:nonzero;stroke:none"
         id="path258" /><path
         d="m 18201.9,3623.2 -784,-288.1 c -392.6,-144.3 -803.1,-234.6 -1220.3,-268.4 l -390,-31.5 c 0,0 -265,-41.3 -207,-527.9 58,-486.7 422.3,-651.6 662.5,-635.1 240.2,16.5 1333.3,181.4 2674.9,742.3 1341.6,560.9 2409.9,1121.7 2467.9,1855.8 0,0 8.3,222.7 -463.8,626.9 0,0 -107.6,131.9 -480.3,-255.7 -296.2,-308.1 -1439.8,-855.9 -1896.7,-1067.7 -119,-55.2 -240.1,-105.4 -363.2,-150.6"
         style="fill:#e03268;fill-opacity:1;fill-rule:nonzero;stroke:none"
         id="path260" /><path
         d="m 18102.5,3693.3 -784,-288.1 c -392.6,-144.3 -803.1,-234.6 -1220.2,-268.3 l -390.1,-31.6 c 0,0 -265,-41.3 -207,-527.9 58,-486.6 422.4,-651.6 662.5,-635.1 240.2,16.5 1333.3,181.4 2674.9,742.3 1341.6,560.9 2409.9,1121.8 2467.9,1855.8 0,0 8.3,222.7 -463.8,626.9 0,0 -107.6,132 -480.3,-255.7 -296.2,-308.1 -1439.7,-855.8 -1896.7,-1067.7 -119,-55.2 -240.1,-105.4 -363.2,-150.6"
         style="fill:#ff5b7e;fill-opacity:1;fill-rule:nonzero;stroke:none"
         id="path262" /><path
         d="m 17312.4,10468.8 c -54.3,-45.1 -68.8,-116.8 -32.6,-160 36.3,-43.2 109.7,-41.6 163.9,3.5 54.3,45.2 68.8,116.8 32.6,160.1 -36.3,43.2 -109.7,41.6 -163.9,-3.6"
         style="fill:#f99893;fill-opacity:1;fill-rule:nonzero;stroke:none"
         id="path264" /><path
         d="m 17116.4,10140.5 c 27.6,17.3 53.8,37.2 78.2,59.7 67.2,59.5 123,130.8 166.3,195.9 9.2,13.9 19.3,27.3 29.6,40.6 41.7,53.4 74.7,115.9 95,187.4 65.2,230 -31,480 -234.1,607.3 -273.7,171.4 -628.5,71.8 -775.8,-205.2 -21.4,32.7 -53.3,54.5 -90.2,57 -70.9,4.7 -133.3,-63 -139.3,-151.3 -5.9,-88.3 46.7,-163.7 117.6,-168.5 9.9,-0.6 19.5,0.3 28.9,2.2 -101.3,-248.3 -4.2,-532.6 230.3,-651.5 114.7,-58.1 242.2,-66.5 359.1,-33.3 7.5,1.6 15.6,3.8 24.5,6.7 38.8,12.6 75.4,30.9 109.9,53"
         style="fill:#ffc0bb;fill-opacity:1;fill-rule:nonzero;stroke:none"
         id="path266" /><path
         d="m 16877.6,10709.7 c -12.9,-25.1 -43.8,-35.2 -69.1,-22.3 -25.3,12.8 -35.4,43.6 -22.5,68.8 12.9,25.2 43.8,35.2 69.1,22.4 25.3,-12.9 35.4,-43.7 22.5,-68.9"
         style="fill:#333333;fill-opacity:1;fill-rule:nonzero;stroke:none"
         id="path268" /><path
         d="m 15330.7,11048.2 c -337.7,301.9 -858.7,1785.9 -1024.2,2275.8 l -2.3,19.4 10.1,216.1 c 3.7,176 18.3,363.3 4.8,372.9 -19.1,13.4 -36.5,3.2 -115.6,-188 -5.1,-12.4 -22.1,-14.3 -29.7,-3.2 -58.8,85.9 -245.9,355.1 -271.2,345.2 -30.2,-11.8 131,-256.5 112.9,-280.3 -18.2,-23.9 -169.4,218.6 -199.6,200.8 -30.2,-17.8 115.1,-234.4 105,-246.3 -10.1,-11.9 -171.5,180.7 -195.6,180.8 -24.1,0.2 123.2,-226.4 115.1,-244.3 -8.2,-17.9 -162,104.7 -174.1,92.8 -12.1,-11.9 -33.2,30.6 233.7,-344.4 0,0 69.3,-92.2 98,-125.9 l 16.8,-124.5 c 41.2,-1069.2 935,-2575.8 935,-2575.8 l 380.9,428.9"
         style="fill:#ffc0bb;fill-opacity:1;fill-rule:nonzero;stroke:none"
         id="path270" /><path
         d="m 17243.2,10500.4 c -12.8,-25.2 -43.8,-35.2 -69.1,-22.4 -25.3,12.8 -35.3,43.6 -22.4,68.8 12.8,25.2 43.8,35.2 69.1,22.4 25.3,-12.8 35.3,-43.6 22.4,-68.8"
         style="fill:#333333;fill-opacity:1;fill-rule:nonzero;stroke:none"
         id="path272" /><path
         d="m 17062.4,10716.4 c -8.5,-14.1 -16.9,-28.3 -24.5,-42.9 -7.9,-14.5 -15.3,-29.2 -22,-44.1 -6.6,-15 -12.9,-30.1 -17.2,-45.7 -4.5,-15.4 -7.7,-31.6 -5.8,-46.9 0.3,-1.8 0.4,-3.8 1,-5.6 0.4,-1.8 0.8,-3.5 1.5,-5.7 0.6,-2.1 1.2,-4.2 1.5,-6.4 0.5,-2.2 0.8,-4.3 1,-6.5 0.9,-8.8 0,-18 -3.4,-26.3 -6.7,-17 -22,-28.9 -38.4,-34.2 -16.4,-5.6 -34,-5.8 -50.5,-2.8 -16.6,3.1 -32.3,9.2 -46.7,17.5 7.7,-3.3 15.4,-6.1 23.3,-8.4 7.9,-2.3 16,-3.9 24.1,-4.7 16.1,-1.8 32.6,-0.6 47.4,5.1 14.6,5.6 27.5,16.2 32.6,30.6 2.7,7 3.6,14.7 2.7,22.2 -0.2,2 -0.5,3.8 -0.9,5.7 -0.3,1.9 -0.9,3.8 -1.4,5.6 l -1.7,6.2 c -0.7,2.2 -0.9,4.4 -1.2,6.6 -1.1,8.7 -0.5,17.4 0.7,25.8 1.3,8.5 3.3,16.7 5.8,24.7 5.1,16 11.7,31.4 19.1,46.3 15,29.7 32.9,57.7 53,83.9"
         style="fill:#f99893;fill-opacity:1;fill-rule:nonzero;stroke:none"
         id="path274" /><path
         d="m 16957.8,10762.3 c -14.1,22.3 -30.6,42.3 -48.9,59.8 -18.5,17.4 -39.4,31.9 -62.1,42.2 -11.3,5.2 -23.2,9.2 -35.4,12.2 -6,1.7 -12.2,2.7 -18.4,3.9 -3.1,0.5 -6.3,0.7 -9.4,1.2 -3.1,0.4 -6.3,0.9 -9.4,1 -25.4,2 -51.3,0.3 -77.6,-3 24.3,10.7 50.8,16.6 78,17.3 13.5,0.4 27.2,-0.6 40.7,-3.5 13.4,-2.6 26.6,-6.7 39.1,-12.5 25,-11.4 47.3,-28.4 64.8,-49 8.9,-10.2 16.5,-21.3 23.2,-32.9 6.4,-11.7 12,-23.9 15.4,-36.7"
         style="fill:#07085b;fill-opacity:1;fill-rule:nonzero;stroke:none"
         id="path276" /><path
         d="m 20792.8,10027.7 c -18.1,15.8 -267.2,-22.2 -266.8,-6.6 0.4,15.6 253.2,82.2 242.4,115.5 -10.8,33.2 -285.3,-49 -283.1,-19.1 2.3,29.9 285.7,107 270.9,135.8 -12.4,24.1 -331.5,-54.4 -432.7,-80 -13.1,-3.4 -24.5,9.3 -20.1,21.9 67.7,195.5 61.5,214.6 38.3,217.1 -16.6,1.8 -130,-148.3 -244.2,-282.7 l -134.7,-167 c -52.1,-33 -1609.9,-1019.6 -1762.6,-1007.4 -155.2,12.4 -378.8,216.5 -378.8,216.5 l -450.9,-334 c 0,0 575.1,-426.9 798.7,-445.4 223.6,-18.6 2005.9,1349 2005.9,1349 44,6.3 157.3,29.7 157.3,29.7 449.2,105.3 405.1,87.3 404,104.3 -1.2,16.9 -198,26.3 -192.2,45.1 5.8,18.8 266.8,91.6 248.6,107.3"
         style="fill:#ffc0bb;fill-opacity:1;fill-rule:nonzero;stroke:none"
         id="path278" /><path
         d="m 17137.3,10659.5 c 12.8,3.5 26.2,4.8 39.6,5.2 13.4,0.1 26.9,-0.8 40.2,-3.3 26.7,-4.7 52.6,-15.4 75.1,-31.2 11.3,-7.8 21.5,-17.1 30.6,-27.4 9.2,-10.1 17,-21.4 23.5,-33.2 13,-23.7 21.2,-49.6 24.2,-75.8 -10.4,24.3 -22,47.4 -36.4,68.2 -1.7,2.7 -3.7,5.2 -5.7,7.6 -1.9,2.5 -3.7,5.1 -5.8,7.5 -4.1,4.7 -8.1,9.6 -12.6,13.9 -8.7,8.9 -18.1,17.2 -28.4,24.3 -20.4,14.4 -43.4,25 -67.8,32.2 -24.5,7 -50.1,11.1 -76.5,12"
         style="fill:#07085b;fill-opacity:1;fill-rule:nonzero;stroke:none"
         id="path280" /><path
         d="m 16994.8,10319.4 c -37.8,-39.7 -112.2,-44.1 -177.9,-7.5 -65.7,36.7 -100.7,102.2 -86.5,155.1 l 264.4,-147.6"
         style="fill:#ffffff;fill-opacity:1;fill-rule:nonzero;stroke:none"
         id="path282" /><path
         d="m 16335.5,10327.9 c 0,0 -625.9,316.1 -296.7,897.6 329.2,581.5 875.7,470.1 1285.7,550.5 409.9,80.5 913,494.9 1552.7,513.5 639.8,18.5 1416.2,129.9 1670.8,-290.8 254.7,-420.6 205,-748.5 -639.7,-1026.8 -844.7,-278.4 -254.7,-884.6 -1211.2,-1008.4 -956.5,-123.7 -1702.6,-58.5 -1869.9,323.4 -167.3,381.8 -491.7,41 -491.7,41"
         style="fill:#07085b;fill-opacity:1;fill-rule:nonzero;stroke:none"
         id="path284" /><path
         d="m 16262.4,5856 673.4,-2954.9 c 0,0 189.9,-39.2 401.1,66 0,0 -24.8,2796.1 -304.4,3266.2 -279.5,470.2 -770.1,-377.3 -770.1,-377.3"
         style="fill:#ffc0bb;fill-opacity:1;fill-rule:nonzero;stroke:none"
         id="path286" /><path
         d="m 17421.8,6472.5 c 0,0 778.4,-529.9 853,-622.7 74.5,-92.8 1484.4,-1497 1484.4,-1497 0,0 372.1,-5.9 365.9,222.9 0,0 -1123.6,1499.9 -1322.4,1702.5 -198.7,202.6 -981.3,864.5 -981.3,864.5 l -399.6,-670.2"
         style="fill:#ffc0bb;fill-opacity:1;fill-rule:nonzero;stroke:none"
         id="path288" /><path
         d="m 15587.4,6495.2 534.2,-750.6 c 0,0 699.8,78.4 1014.5,511.4 l -666.7,944.4 -882,-705.2"
         style="fill:#07085b;fill-opacity:1;fill-rule:nonzero;stroke:none"
         id="path290" /><path
         d="m 16664,7200.4 724.7,-833 c 0,0 600.4,177.3 790.8,626.8 l -757.7,680.5 -757.8,-474.3"
         style="fill:#07085b;fill-opacity:1;fill-rule:nonzero;stroke:none"
         id="path292" /><path
         d="m 16287.3,10229.7 c 0,0 -733,754.5 -875.8,1026.7 0,0 -422.4,-92.3 -633.6,-732.8 0,0 248.5,-436.3 465.9,-572.4 0,0 -1453.4,-2437.3 186.3,-3959.1 0,0 414.2,569.1 857.2,915.5 443,346.4 1014.4,371.2 1279.4,701.1 0,0 -603.3,643.4 -606,1187.7 0,0 428,-276.3 606,-305.2 0,0 451.3,503.2 434.8,853.7 0,0 -670.8,319.1 -902.7,473 -231.9,153.9 -509.3,193.8 -509.3,193.8 l -302.2,218"
         style="fill:#ff5b7e;fill-opacity:1;fill-rule:nonzero;stroke:none"
         id="path294" /><path
         d="m 16388.9,10447.6 c 0,0 -78.1,-187.5 -157,-318.2 0,0 -14.4,-370.9 376.9,-226.3 40.9,88.8 98.8,204.4 136.2,236.6 63,54.3 -356.1,307.9 -356.1,307.9"
         style="fill:#ffc0bb;fill-opacity:1;fill-rule:nonzero;stroke:none"
         id="path296" /><path
         d="m 16388.9,10447.6 c 0,0 -31.5,-75.8 -74.8,-164.5 41.4,-106.7 123,-195.9 235,-242.2 36.9,-15.2 74.7,-24.7 112.6,-29.2 29.7,57.1 60.4,108.2 83.3,128 63,54.3 -356.1,307.9 -356.1,307.9"
         style="fill:#f99893;fill-opacity:1;fill-rule:nonzero;stroke:none"
         id="path298" /><path
         d="m 17312.4,10468.8 c -54.3,-45.1 -68.8,-116.8 -32.6,-160 36.3,-43.2 109.7,-41.6 163.9,3.5 54.3,45.2 68.8,116.8 32.6,160.1 -36.3,43.2 -109.7,41.6 -163.9,-3.6"
         style="fill:#f99893;fill-opacity:1;fill-rule:nonzero;stroke:none"
         id="path300" /><path
         d="m 17116.4,10140.5 c 27.6,17.3 53.8,37.2 78.2,59.7 67.2,59.5 123,130.8 166.3,195.9 9.2,13.9 19.3,27.3 29.6,40.6 41.7,53.4 74.7,115.9 95,187.4 65.2,230 -31,480 -234.1,607.3 -273.7,171.4 -628.5,71.8 -775.8,-205.2 -21.4,32.7 -53.3,54.5 -90.2,57 -70.9,4.7 -133.3,-63 -139.3,-151.3 -5.9,-88.3 46.7,-163.7 117.6,-168.5 9.9,-0.6 19.5,0.3 28.9,2.2 -101.3,-248.3 -4.2,-532.6 230.3,-651.5 114.7,-58.1 242.2,-66.5 359.1,-33.3 7.5,1.6 15.6,3.8 24.5,6.7 38.8,12.6 75.4,30.9 109.9,53"
         style="fill:#ffc0bb;fill-opacity:1;fill-rule:nonzero;stroke:none"
         id="path302" /><path
         d="m 16877.6,10709.7 c -12.9,-25.1 -43.8,-35.2 -69.1,-22.3 -25.3,12.8 -35.4,43.6 -22.5,68.8 12.9,25.2 43.8,35.2 69.1,22.4 25.3,-12.9 35.4,-43.7 22.5,-68.9"
         style="fill:#333333;fill-opacity:1;fill-rule:nonzero;stroke:none"
         id="path304" /><path
         d="m 17243.2,10500.4 c -12.8,-25.2 -43.8,-35.2 -69.1,-22.4 -25.3,12.8 -35.3,43.6 -22.4,68.8 12.8,25.2 43.8,35.2 69.1,22.4 25.3,-12.8 35.3,-43.6 22.4,-68.8"
         style="fill:#333333;fill-opacity:1;fill-rule:nonzero;stroke:none"
         id="path306" /><path
         d="m 17062.4,10716.4 c -8.5,-14.1 -16.9,-28.3 -24.5,-42.9 -7.9,-14.5 -15.3,-29.2 -22,-44.1 -6.6,-15 -12.9,-30.1 -17.2,-45.7 -4.5,-15.4 -7.7,-31.6 -5.8,-46.9 0.3,-1.8 0.4,-3.8 1,-5.6 0.4,-1.8 0.8,-3.5 1.5,-5.7 0.6,-2.1 1.2,-4.2 1.5,-6.4 0.5,-2.2 0.8,-4.3 1,-6.5 0.9,-8.8 0,-18 -3.4,-26.3 -6.7,-17 -22,-28.9 -38.4,-34.2 -16.4,-5.6 -34,-5.8 -50.5,-2.8 -16.6,3.1 -32.3,9.2 -46.7,17.5 7.7,-3.3 15.4,-6.1 23.3,-8.4 7.9,-2.3 16,-3.9 24.1,-4.7 16.1,-1.8 32.6,-0.6 47.4,5.1 14.6,5.6 27.5,16.2 32.6,30.6 2.7,7 3.6,14.7 2.7,22.2 -0.2,2 -0.5,3.8 -0.9,5.7 -0.3,1.9 -0.9,3.8 -1.4,5.6 l -1.7,6.2 c -0.7,2.2 -0.9,4.4 -1.2,6.6 -1.1,8.7 -0.5,17.4 0.7,25.8 1.3,8.5 3.3,16.7 5.8,24.7 5.1,16 11.7,31.4 19.1,46.3 15,29.7 32.9,57.7 53,83.9"
         style="fill:#f99893;fill-opacity:1;fill-rule:nonzero;stroke:none"
         id="path308" /><path
         d="m 16957.8,10762.3 c -14.1,22.3 -30.6,42.3 -48.9,59.8 -18.5,17.4 -39.4,31.9 -62.1,42.2 -11.3,5.2 -23.2,9.2 -35.4,12.2 -6,1.7 -12.2,2.7 -18.4,3.9 -3.1,0.5 -6.3,0.7 -9.4,1.2 -3.1,0.4 -6.3,0.9 -9.4,1 -25.4,2 -51.3,0.3 -77.6,-3 24.3,10.7 50.8,16.6 78,17.3 13.5,0.4 27.2,-0.6 40.7,-3.5 13.4,-2.6 26.6,-6.7 39.1,-12.5 25,-11.4 47.3,-28.4 64.8,-49 8.9,-10.2 16.5,-21.3 23.2,-32.9 6.4,-11.7 12,-23.9 15.4,-36.7"
         style="fill:#07085b;fill-opacity:1;fill-rule:nonzero;stroke:none"
         id="path310" /><path
         d="m 17137.3,10659.5 c 12.8,3.5 26.2,4.8 39.6,5.2 13.4,0.1 26.9,-0.8 40.2,-3.3 26.7,-4.7 52.6,-15.4 75.1,-31.2 11.3,-7.8 21.5,-17.1 30.6,-27.4 9.2,-10.1 17,-21.4 23.5,-33.2 13,-23.7 21.2,-49.6 24.2,-75.8 -10.4,24.3 -22,47.4 -36.4,68.2 -1.7,2.7 -3.7,5.2 -5.7,7.6 -1.9,2.5 -3.7,5.1 -5.8,7.5 -4.1,4.7 -8.1,9.6 -12.6,13.9 -8.7,8.9 -18.1,17.2 -28.4,24.3 -20.4,14.4 -43.4,25 -67.8,32.2 -24.5,7 -50.1,11.1 -76.5,12"
         style="fill:#07085b;fill-opacity:1;fill-rule:nonzero;stroke:none"
         id="path312" /><path
         d="m 16994.8,10319.4 c -37.8,-39.7 -112.2,-44.1 -177.9,-7.5 -65.7,36.7 -100.7,102.2 -86.5,155.1 l 264.4,-147.6"
         style="fill:#ffffff;fill-opacity:1;fill-rule:nonzero;stroke:none"
         id="path314" /><path
         d="m 16900.7,3002.4 9.8,-385.9 c 0.8,-31.8 27.5,-57 59.5,-56.2 l 908.6,22.9 c 65.8,1.6 88.6,87.6 32.3,121.4 l -570.8,346.1 c 0,0 -143.4,-186.2 -439.4,-48.3"
         style="fill:#07085b;fill-opacity:1;fill-rule:nonzero;stroke:none"
         id="path316" /><path
         d="m 19734.5,4369.8 151.7,-355.2 c 12.5,-29.4 46.6,-43 76.1,-30.5 l 836.4,354.4 c 60.5,25.6 50,114 -14.9,124.7 l -658.7,112.5 c 0,0 -64.5,-225.7 -390.6,-205.9"
         style="fill:#07085b;fill-opacity:1;fill-rule:nonzero;stroke:none"
         id="path318" /><path
         d="m 16475.6,11026.2 c 0,0 457.6,-147.1 830.2,46.7 l 39.4,47.4 -18.7,-63.9 c 0,0 -87.1,-405.9 106.6,-556.6 0,0 177.1,144.2 179.1,150.4 2.1,6.2 78.7,280.4 37.3,358.8 -41.4,78.3 -62.1,148.4 -126.3,210.3 -64.2,61.9 -53.8,109.3 -173.9,138.1 -120.1,28.9 -161.7,70.2 -286.9,61.9 -125.1,-8.2 -256.7,18.6 -282,12.4 -25.3,-6.2 -211.6,-61.9 -232.3,-82.5 -20.7,-20.6 -122.2,-169.1 -122.2,-169.1 l 49.7,-153.9"
         style="fill:#07085b;fill-opacity:1;fill-rule:nonzero;stroke:none"
         id="path320" /><path
         d="m 14777.9,10523.6 c 18.1,-32.3 36.6,-64.3 56.6,-95.5 19.4,-31.4 39.6,-62.3 60.6,-92.7 42,-60.8 86.2,-120 134.1,-176.1 47.3,-56.7 99.2,-109.2 153.7,-158.9 28.2,-23.8 55.9,-48.4 86.4,-69.3 28.8,-23.3 61.5,-40.9 92.5,-61.4 -66.4,33.3 -128.7,74.9 -185.9,122.6 -56.5,48.5 -108.9,101.6 -157.4,158 -47.3,57.3 -92,116.8 -132.3,179.2 -40.1,62.4 -77.3,126.8 -108.3,194.1"
         style="fill:#ffffff;fill-opacity:1;fill-rule:nonzero;stroke:none"
         id="path322" /><path
         d="m 17024.3,9464.5 c -11.9,-45.1 -22.1,-90.7 -30.3,-136.5 -8.7,-45.8 -16,-91.9 -21.6,-138.1 -11.3,-92.4 -18,-185.4 -16.3,-278.4 0.3,-93 8.8,-185.9 25.9,-277.3 16.6,-91.5 43.8,-181 80.4,-267 -20.6,41.9 -39.1,85 -54.2,129.4 -14.6,44.4 -27.4,89.6 -36.8,135.5 -9.9,45.9 -16.6,92.3 -21.3,138.9 -4.8,46.7 -7.5,93.5 -8,140.4 -0.5,93.7 6.1,187.3 19.7,279.9 14,92.5 33.3,184.4 62.5,273.2"
         style="fill:#ffffff;fill-opacity:1;fill-rule:nonzero;stroke:none"
         id="path324" /><path
         d="m 3852.1,6945.2 c -458,94.5 -2011.25,-383.4 -2519.93,-546.6 l -17.53,-10 -173.55,-140.8 C 997.008,6136.9 850.258,6010.1 833.977,6015.4 c -22.86,7.6 -25.016,28.2 85.476,210.8 7.172,11.9 -1.625,27.1 -15.504,26.6 -107.527,-3.9 -445.957,-14.1 -453.222,13 -8.637,32.2 293.535,48.6 302.253,78.3 8.719,29.7 -285.609,6.2 -289.281,42.2 -3.672,35.9 265.426,48.3 269.168,63.9 3.738,15.7 -255.402,31.3 -270.254,51.2 -14.855,19.8 263.754,36.7 273.7,54.4 9.941,17.7 -186.325,69.9 -183.825,87.2 2.508,17.4 -45.808,8.8 429.532,17.7 0,0 119.16,-0.9 164.82,-4.1 l 113.73,62.4 c 914.27,621 2714.76,804.4 2714.76,804.4 L 3852.1,6945.2"
         style="fill:#ffc0bb;fill-opacity:1;fill-rule:nonzero;stroke:none"
         id="path326" /><path
         d="m 5430.5,6127.8 c 288.7,-367.1 551.31,-1967.6 631.36,-2494.7 l -1.21,-20.1 -49.06,-217.7 c -35.36,-178.1 -83.89,-365.7 -71.81,-377.9 16.94,-17 36.41,-9.8 151.11,170.3 7.45,11.6 25,10.5 30.73,-2.1 44.36,-97.8 185.94,-404.6 213.48,-399.1 32.75,6.6 -87.04,283.9 -64.28,304.9 22.75,21 132.73,-252.4 166.59,-239.7 33.86,12.7 -74.82,258.7 -62.42,269 12.39,10.3 141.8,-214.2 166.22,-218.7 24.43,-4.4 -84.44,252 -72.97,268.8 11.47,16.8 145.67,-135.4 160.1,-125.4 14.43,9.9 28.23,-37.1 -175.42,391.6 0,0 -53.82,106 -77.01,145.4 l 5.38,129.4 c 150.27,1093.3 -486.81,2783.4 -486.81,2783.4 L 5430.5,6127.8"
         style="fill:#ffc0bb;fill-opacity:1;fill-rule:nonzero;stroke:none"
         id="path328" /><path
         d="m 5233.27,7755.2 c 0,0 -283.03,-105.9 -353.66,80.5 0,0 -397.32,75.3 -231.28,382.9 0,0 -184.37,255.1 29.09,504.5 0,0 -136.79,296.9 205.74,427.6 0,0 -44.43,341.4 302.31,303.4 0,0 238.09,451.3 622.44,140.9 0,0 480.18,215.6 669.49,-128 0,0 338.02,-27.9 317.49,-421.3 0,0 269.94,-238.7 -8.81,-576.5 0,0 162.78,-466.9 -184.42,-722.7 0,0 -86.47,-502.6 -575.98,-226.2 -489.5,276.5 -792.41,234.9 -792.41,234.9"
         style="fill:#07085b;fill-opacity:1;fill-rule:nonzero;stroke:none"
         id="path330" /><path
         d="m 6111.44,6144.1 c 0,0 -37.59,618 -349.35,1018 -57.83,74.2 -158.39,102.2 -244.77,64.6 -90.69,-39.4 -197.41,-129.2 -258.45,-331.2 -120.87,-400 84.03,-942.8 84.03,-942.8 0,0 356.77,-74.7 768.54,191.4"
         style="fill:#0d126d;fill-opacity:1;fill-rule:nonzero;stroke:none"
         id="path332" /><path
         d="m 5199.87,7560.1 c 0,0 -457.83,185.1 -705.38,109.9 C 4246.94,7594.9 2730.77,5994.5 2613.41,5611.8 l 1896.61,-842.3 c 0,0 1105.25,1345.3 1332.09,1791.1 226.84,445.7 -244.67,717.1 -244.67,717.1 l -397.57,282.4"
         style="fill:#07085b;fill-opacity:1;fill-rule:nonzero;stroke:none"
         id="path334" /><path
         d="m 5091.46,7376.4 v 0 l 241.69,409.6 401.97,-246 -139.61,-402.2 c -0.02,-0.1 -386.4,-116.2 -504.05,238.6"
         style="fill:#ffc0bb;fill-opacity:1;fill-rule:nonzero;stroke:none"
         id="path336" /><path
         d="m 5641.82,7271.2 93.3,268.8 -401.97,246 -118.62,-201.1 c 43.92,-123.6 153.51,-282.4 427.29,-313.7"
         style="fill:#f99893;fill-opacity:1;fill-rule:nonzero;stroke:none"
         id="path338" /><path
         d="m 6307.02,8037.8 c -45.16,-68.3 -37.29,-152.8 17.58,-188.8 54.87,-36 135.96,-9.8 181.12,58.5 45.15,68.3 37.28,152.8 -17.59,188.8 -54.87,36 -135.96,9.8 -181.11,-58.5"
         style="fill:#f99893;fill-opacity:1;fill-rule:nonzero;stroke:none"
         id="path340" /><path
         d="m 6199.32,7607.4 c 24.93,28.4 47.39,59.3 67.02,92.4 54.7,88.5 92.87,186.4 119.08,273.2 5.62,18.7 12.31,36.9 19.35,55.1 28.42,73.2 44.11,153.7 42.64,240 -4.72,277.6 -195.67,523.7 -464.38,597.7 -362,99.6 -723.05,-129.3 -793.97,-486.4 -34.69,29.3 -77.49,42.9 -119.44,33.4 -80.48,-18.3 -127.07,-114.4 -104.05,-214.6 23.01,-100.2 106.91,-166.6 187.39,-148.3 11.18,2.5 21.62,6.7 31.4,12 -29.24,-310 174.18,-593.9 475,-648.1 147.11,-26.5 291.67,6.6 410.58,82.5 7.79,4.3 16.1,9.4 24.98,15.5 38.96,26.9 73.53,59.6 104.4,95.6"
         style="fill:#ffc0bb;fill-opacity:1;fill-rule:nonzero;stroke:none"
         id="path342" /><path
         d="m 5953.14,8235 c -3.58,-36.1 -7.97,-71.2 -10.68,-105.8 -2.23,-33.9 -3.34,-70.3 7.04,-95.8 l 2.19,-4.1 c 0.83,-1.6 0.98,-2.4 2.72,-5.2 2.61,-4.9 5.99,-9.2 7.71,-14.8 4.16,-10.5 6.42,-22.4 5.03,-34.1 -2.34,-23.9 -17.77,-43.5 -35.22,-54.5 -35.75,-22.6 -77.78,-19.7 -111.17,-6.6 36.04,1.5 71.39,9.1 94.09,29.4 10.61,10.1 18.33,22.1 17.81,34.3 0.12,5.9 -1.12,12 -3.87,17.8 -0.8,3.1 -3.34,5.8 -4.78,8.7 l -3.72,6.6 -4.11,7.6 c -8.73,20.7 -9.75,40.6 -9.41,59.6 0.76,19.1 3.45,37.4 7.61,55.3 8.31,35.7 20.74,69.9 38.76,101.6"
         style="fill:#f99893;fill-opacity:1;fill-rule:nonzero;stroke:none"
         id="path344" /><path
         d="m 5737.92,8215.2 c -5.45,-30 -34.29,-50 -64.43,-44.5 -30.13,5.4 -50.15,34.1 -44.71,64.1 5.44,30 34.29,50 64.42,44.5 30.14,-5.4 50.16,-34.1 44.72,-64.1"
         style="fill:#333333;fill-opacity:1;fill-rule:nonzero;stroke:none"
         id="path346" /><path
         d="m 6200.97,8100.1 c -5.44,-30 -34.29,-49.9 -64.42,-44.5 -30.14,5.4 -50.15,34.2 -44.71,64.2 5.44,30 34.28,49.9 64.42,44.5 30.14,-5.5 50.16,-34.2 44.71,-64.2"
         style="fill:#333333;fill-opacity:1;fill-rule:nonzero;stroke:none"
         id="path348" /><path
         d="m 5823.38,8329.7 c -26.83,12.3 -52.29,22.3 -77.81,29.8 -25.49,7.4 -50.89,11.5 -76.13,11.8 -25.14,0 -50.69,-2 -76.02,-9.7 -13.2,-2.2 -25.26,-8.2 -38.79,-11.9 -13.19,-4.5 -25.7,-10.7 -40.36,-15 8.62,11.8 18.34,23.2 29.27,33.3 11.74,9 23.22,19.3 37.22,25.4 26.6,15.1 58.39,21.6 89.52,21.4 31.33,-0.4 62.24,-9.1 88.73,-24 26.31,-15 49.53,-35.3 64.37,-61.1"
         style="fill:#07085b;fill-opacity:1;fill-rule:nonzero;stroke:none"
         id="path350" /><path
         d="m 6061.92,8270.4 c 24.79,16.6 54.64,24.5 84.92,26.4 30.36,1.6 61.92,-4.3 90.18,-17.8 28.01,-13.5 53.61,-33.4 70.73,-58.7 9.82,-11.7 15.51,-26 22.05,-39.2 5.29,-13.9 8.95,-28.4 11.43,-42.8 -11.27,10.3 -19.69,21.4 -29.5,31.3 -10.52,9.2 -18.64,20 -29.47,27.8 -19.3,18.1 -41.32,31.1 -63.83,42.3 -22.75,10.9 -47.33,18.5 -73.48,23.1 -26.2,4.5 -53.49,6.8 -83.03,7.6"
         style="fill:#07085b;fill-opacity:1;fill-rule:nonzero;stroke:none"
         id="path352" /><path
         d="m 1852.78,2371.4 c -106.26,-82.4 -259.45,-63.1 -342.15,43.1 -82.71,106.2 -63.62,259.1 42.63,341.5 106.26,82.4 259.45,63 342.16,-43.2 82.71,-106.2 63.62,-259 -42.64,-341.4"
         style="fill:#efceb4;fill-opacity:1;fill-rule:nonzero;stroke:none"
         id="path354" /><path
         d="m 1703.35,2426.1 c -41.13,0 -81.86,18.3 -109.08,53.3 -46.74,60 -35.95,146.4 24.11,193 25.08,19.4 54.8,28.9 84.31,28.9 41.14,0 81.86,-18.3 109.08,-53.3 46.75,-60 35.97,-146.4 -24.1,-193 -25.09,-19.4 -54.81,-28.9 -84.32,-28.9"
         style="fill:#e0a67f;fill-opacity:1;fill-rule:nonzero;stroke:none"
         id="path356" /><path
         d="m 5121.93,584.699 c -106.25,-82.297 -259.44,-62.996 -342.15,43.203 -82.71,106.2 -63.62,259.098 42.63,341.399 106.27,82.399 259.45,63.099 342.17,-43.102 82.71,-106.199 63.61,-259.097 -42.65,-341.5"
         style="fill:#efceb4;fill-opacity:1;fill-rule:nonzero;stroke:none"
         id="path358" /><path
         d="m 4972.51,639.5 c -41.14,0 -81.86,18.301 -109.08,53.199 -46.75,60.102 -35.96,146.504 24.1,193 25.08,19.5 54.81,28.903 84.31,28.903 41.14,0 81.86,-18.301 109.08,-53.301 46.76,-60 35.97,-146.399 -24.09,-193 -25.09,-19.399 -54.81,-28.801 -84.32,-28.801"
         style="fill:#e0a67f;fill-opacity:1;fill-rule:nonzero;stroke:none"
         id="path360" /><path
         d="m 3702.29,2787.7 -704.57,434.1 c -352.85,217.4 -674.43,481.8 -955.84,785.8 l -263.13,284.3 c 0,0 -194.26,181.1 -539.35,-161.5 -345.087,-342.7 -251.318,-727.2 -91.6,-904 159.72,-176.9 957,-927 2215.76,-1628.4 1258.75,-701.398 2350.43,-1190.098 2959.89,-786.5 0,0 179.21,129.699 206.66,744.3 0,0 37.38,164.4 -493.59,217.5 -421.98,42.2 -1549.41,597.5 -1994.44,823.7 -115.85,58.9 -229.15,122.5 -339.79,190.7"
         style="fill:#efae3c;fill-opacity:1;fill-rule:nonzero;stroke:none"
         id="path362" /><path
         d="M 3696.36,2907.9 2991.79,3342 c -352.85,217.4 -674.43,481.8 -955.84,785.8 l -263.13,284.3 c 0,0 -194.26,181.1 -539.35,-161.5 -345.091,-342.6 -251.322,-727.1 -91.6,-904 159.72,-176.9 957.01,-926.9 2215.76,-1628.4 1258.75,-701.4 2350.43,-1190.098 2959.89,-786.399 0,0 179.2,129.699 206.65,744.199 0,0 37.38,164.5 -493.57,217.5 -421.99,42.2 -1549.42,597.6 -1994.45,823.7 -115.85,58.9 -229.15,122.5 -339.79,190.7"
         style="fill:#ffcc68;fill-opacity:1;fill-rule:nonzero;stroke:none"
         id="path364" /><path
         d="m 4648.3,2262.9 -232.43,-208 c -19.2,-17.2 -20.77,-46.7 -3.53,-65.9 l 489.07,-543.8 c 35.39,-39.4 100.29,-8.3 91.61,43.8 l -85.32,530.4 c 0,0 -189.62,-9.8 -259.4,243.5"
         style="fill:#4188e4;fill-opacity:1;fill-rule:nonzero;stroke:none"
         id="path366" /><path
         d="m 4625.74,4640.8 c 0,0 1405.86,-413.6 1536.01,-516.2 144.67,-114.1 407.51,-644.9 -1248.28,-2209.5 0,0 -279.25,71.5 -320.08,321.6 l 677.1,1058 c 0,0 -1161.47,68.4 -1355.93,351.1 -194.47,282.7 711.18,995 711.18,995"
         style="fill:#282828;fill-opacity:1;fill-rule:nonzero;stroke:none"
         id="path368" /><path
         d="m 2733.29,3473.3 -291.88,-110.8 c -24.11,-9.1 -36.21,-36.1 -27.03,-60.1 l 260.26,-683 c 18.84,-49.4 90.58,-43.7 101.29,8 l 111.62,525.6 c 0,0 -180.46,58.9 -154.26,320.3"
         style="fill:#4188e4;fill-opacity:1;fill-rule:nonzero;stroke:none"
         id="path370" /><path
         d="m 3701.62,7609.2 c 0,0 653.03,213.8 1193.15,57 100.2,-29.1 170.16,-121 166.68,-225 -3.65,-109.3 -52.75,-255.6 -236.24,-400.8 -363.37,-287.6 -1007.23,-298.9 -1007.23,-298.9 0,0 -222.77,336 -116.36,867.7"
         style="fill:#07085b;fill-opacity:1;fill-rule:nonzero;stroke:none"
         id="path372" /><path
         d="m 5513.39,9058.9 -166.64,-375.1 978.72,-134.5 c 0,0 63.69,-125.3 79.2,-129.2 15.52,-4 148.09,-0.4 150.07,17.6 1.97,18 -146.76,550.4 -146.76,550.4 0,0 -322.74,49 -352.01,52.2 -29.27,3.2 -542.58,18.6 -542.58,18.6"
         style="fill:#07085b;fill-opacity:1;fill-rule:nonzero;stroke:none"
         id="path374" /><path
         d="m 2660.72,5590.7 c 0,0 -791.3,-1209.8 739.37,-1526.2 l -730.77,-614.2 c 0,0 63.39,-293.5 200.79,-349.5 126.66,-51.6 2206.5,644.9 1840.05,1583.3 -52.68,134.9 -149.83,247.7 -271.37,326.8 -306.67,199.5 -1128.05,680.8 -1778.07,579.8"
         style="fill:#333333;fill-opacity:1;fill-rule:nonzero;stroke:none"
         id="path376" /><path
         d="m 5237.31,8525.6 c 0,0 612.42,198.8 1211.36,-293.3 0,0 28.93,80.7 41.3,193 0,0 -337.55,497.6 -1193.55,298.2 0,0 -55.61,-34.3 -59.11,-197.9"
         style="fill:#ff5b7e;fill-opacity:1;fill-rule:nonzero;stroke:none"
         id="path378" /><path
         d="m 4226.58,6937.1 c -72.86,-23 -145.46,-46.7 -217.94,-70.8 -69.48,-23.5 -138.82,-47.4 -207.87,-72.1 -12.68,29.8 -25.27,59.7 -38.54,89.3 -14.46,32.7 -28.6,65.4 -43.8,97.8 10.39,-34.2 21.84,-68 32.98,-101.9 10.98,-34 22.8,-67.6 34.41,-101.4 l 2.99,-8.7 9.51,2.8 c 73.39,21.3 146.47,43.6 219.39,66.3 72.83,23.1 145.55,46.5 217.99,70.7 144.92,48.3 289.07,99.1 431.38,155.4 -148.32,-37.9 -294.8,-81.5 -440.5,-127.4"
         style="fill:#ffffff;fill-opacity:1;fill-rule:nonzero;stroke:none"
         id="path380" /><path
         d="m 6033.08,7765.1 c -47.29,-83.2 -154.68,-123.1 -257.59,-90 -102.92,33.1 -166.83,128 -156.64,223 l 414.23,-133"
         style="fill:#ffffff;fill-opacity:1;fill-rule:nonzero;stroke:none"
         id="path382" /><path
         d="m 7892.81,14861.4 c 93.46,-122.5 172.41,-651.6 196.28,-825.8 l -0.49,-6.7 -17.23,-71.5 c -12.51,-58.6 -29.42,-120.2 -25.49,-124.3 5.51,-5.7 11.96,-3.4 50.65,55.4 2.52,3.8 8.3,3.4 10.13,-0.8 14.16,-32.5 59.38,-134.4 68.5,-132.7 10.83,2.1 -27.35,94.1 -19.74,100.9 7.6,6.8 42.57,-83.9 53.8,-79.8 11.22,4 -23.44,85.6 -19.3,89 4.13,3.3 45.74,-71.4 53.78,-72.9 8.03,-1.6 -26.65,83.5 -22.79,89 3.87,5.4 47.4,-45.4 52.21,-42.2 4.8,3.2 9.13,-12.3 -55.98,130 0,0 -17.25,35.3 -24.7,48.4 l 2.39,42.6 c 54.8,359.9 -147.22,920.4 -147.22,920.4 l -154.8,-119"
         style="fill:#ffc0bb;fill-opacity:1;fill-rule:nonzero;stroke:none"
         id="path384" /><path
         d="m 7348.12,15398.8 c -79.34,132 -542.59,401.3 -695.91,488 l -6.36,2 -73.01,10.6 c -59.16,10.1 -122.81,17.3 -125.14,22.5 -3.27,7.2 1.26,12.3 70.37,26.4 4.49,0.9 6.22,6.4 2.99,9.6 -24.97,25.2 -103.04,104.9 -98.08,112.7 5.91,9.3 77.41,-60.2 86.58,-55.7 9.17,4.5 -62.29,70.5 -54.38,79.5 7.92,8.9 71.05,-53.5 75.69,-50.9 4.65,2.6 -49.44,68.8 -47.93,76.9 1.51,8 67.87,-55.7 74.39,-54.2 6.53,1.6 -24.62,60.8 -19.85,64 4.78,3.3 -8.11,13.1 100.24,-100 0,0 26.41,-29.1 35.84,-40.8 l 40.59,-13.6 c 355.31,-82.7 802.13,-477.7 802.13,-477.7 l -168.16,-99.3"
         style="fill:#ffc0bb;fill-opacity:1;fill-rule:nonzero;stroke:none"
         id="path386" /><path
         d="m 6633.5,13280.3 -85.66,-76.7 c -7.08,-6.3 -7.66,-17.2 -1.3,-24.3 l 180.25,-200.4 c 13.04,-14.5 36.96,-3.1 33.76,16.1 l -31.44,195.6 c 0,0 -69.89,-3.7 -95.61,89.7"
         style="fill:#4188e4;fill-opacity:1;fill-rule:nonzero;stroke:none"
         id="path388" /><path
         d="m 6055.14,13795.5 -77.05,-85.3 c -6.37,-7.1 -17.26,-7.6 -24.33,-1.3 l -200.5,180.3 c -14.51,13.1 -2.99,36.9 16.27,33.7 l 195.88,-31.8 c 0,0 -3.78,-69.7 89.73,-95.6"
         style="fill:#4188e4;fill-opacity:1;fill-rule:nonzero;stroke:none"
         id="path390" /><path
         d="m 7320.35,14411.7 c 0,0 -3.21,-358.7 -41.73,-480.4 -38.52,-121.7 -529.62,-762.2 -529.62,-762.2 0,0 -70.62,-22.4 -163.7,83.3 0,0 417.27,925.5 407.64,986.4 -9.62,60.8 -109.13,211.3 -109.13,211.3 0,0 -369.13,19.2 -423.7,0 -54.56,-19.2 -363.24,-645.8 -404.97,-681.1 0,0 -112.48,23.7 -154.21,132.5 0,0 267.08,776 369.8,827.3 102.72,51.2 624.03,62.3 624.03,62.3 l 425.59,-379.4"
         style="fill:#333333;fill-opacity:1;fill-rule:nonzero;stroke:none"
         id="path392" /><path
         d="m 8019.36,15174.9 c 0,0 96.86,-154.7 133.86,-507 0,0 -135.14,-96.1 -281.78,-83.3 l -63.19,214.6 c 0,0 -385.18,-227.4 -491.11,-467.6 0,0 -401.23,182.6 -497.53,451.6 0,0 314.57,398.1 478.27,546.5 0,0 -77.04,37.4 -192.59,184.2 0,0 67.41,188.4 163.7,220.5 0,0 257.72,-132.5 356.3,-185.5 62.19,-33.4 225.71,-136.2 394.07,-374"
         style="fill:#ff5b7e;fill-opacity:1;fill-rule:nonzero;stroke:none"
         id="path394" /><path
         d="m 7998.16,15738.9 c 0,0 136.04,155.1 266.35,98.5 130.3,-56.6 196.11,-166.4 208.63,-263.4 12.51,-97 -86.8,-228.7 -182.68,-247.3 l -93.96,285.9 -198.34,126.3"
         style="fill:#07085b;fill-opacity:1;fill-rule:nonzero;stroke:none"
         id="path396" /><path
         d="m 7782.27,15395.5 107.05,-161.6 c 31.92,26.8 75.26,60.7 95.65,66 34.4,9.1 -84.26,189.5 -84.26,189.5 0,0 -64.15,-58.2 -118.44,-93.9"
         style="fill:#ffc0bb;fill-opacity:1;fill-rule:nonzero;stroke:none"
         id="path398" /><path
         d="m 7900.71,15489.4 c 0,0 -25.92,-23.5 -58.76,-49.8 -2.88,-49.8 13.12,-100.4 48.68,-140.3 11.7,-13.1 24.8,-24.1 38.85,-33.2 21.84,16.5 42.99,30.6 55.49,33.8 34.4,9.1 -84.26,189.5 -84.26,189.5"
         style="fill:#f99893;fill-opacity:1;fill-rule:nonzero;stroke:none"
         id="path400" /><path
         d="m 8239.98,15337.5 c -28.03,-6.9 -45.74,-30.9 -39.55,-53.8 6.18,-22.9 33.92,-35.9 61.94,-29.1 28.03,6.8 45.74,30.9 39.55,53.8 -6.18,22.9 -33.92,35.9 -61.94,29.1"
         style="fill:#f99893;fill-opacity:1;fill-rule:nonzero;stroke:none"
         id="path402" /><path
         d="m 8110.47,15251.1 c 13.29,1.4 26.51,4 39.49,7.8 35.31,9.8 68.41,26.1 95.72,42.4 5.87,3.5 11.92,6.6 18.05,9.6 24.73,12.3 47.77,29.5 67.59,52.5 63.77,73.8 70.55,185.1 16.29,270.3 -73.1,114.8 -222.9,143.3 -325.44,67.2 -2.39,16.2 -10.6,30.2 -24.01,38 -25.73,14.9 -60.65,1.2 -77.98,-30.7 -17.35,-31.9 -10.55,-69.8 15.18,-84.8 3.57,-2 7.33,-3.5 11.19,-4.5 -80.4,-74 -92.71,-198.2 -25.27,-286.1 32.98,-43 79.25,-69.8 128.7,-79 3.07,-0.9 6.48,-1.5 10.28,-2.1 16.69,-2.5 33.54,-2.4 50.21,-0.6"
         style="fill:#ffc0bb;fill-opacity:1;fill-rule:nonzero;stroke:none"
         id="path404" /><path
         d="m 8118.49,15508.1 c -9.13,-7 -22.43,-5 -29.7,4.4 -7.27,9.5 -5.77,22.9 3.36,29.9 9.13,7 22.43,5 29.7,-4.4 7.27,-9.5 5.76,-22.9 -3.36,-29.9"
         style="fill:#333333;fill-opacity:1;fill-rule:nonzero;stroke:none"
         id="path406" /><path
         d="m 8219.51,15362.1 c -9.13,-7.1 -22.43,-5.1 -29.7,4.4 -7.27,9.5 -5.76,22.9 3.36,29.9 9.13,7 22.43,5 29.7,-4.5 7.27,-9.4 5.77,-22.8 -3.36,-29.8"
         style="fill:#333333;fill-opacity:1;fill-rule:nonzero;stroke:none"
         id="path408" /><path
         d="m 8157.47,15512.9 c -1.45,10.9 -4.19,21.4 -8.06,31.4 -3.96,9.9 -9.27,19.2 -16.02,27.2 -3.32,4.1 -7.11,7.8 -11.13,11.2 -1.97,1.7 -4.13,3.2 -6.25,4.8 -1.05,0.8 -2.2,1.5 -3.3,2.2 -1.1,0.8 -2.19,1.5 -3.36,2.2 -9.15,5.4 -19.13,9.6 -29.54,13.2 10.9,-0.5 21.87,-3.2 32.14,-8 5.13,-2.4 10.09,-5.3 14.64,-8.8 4.57,-3.5 8.82,-7.5 12.5,-12 7.42,-8.9 12.85,-19.4 15.88,-30.3 1.57,-5.4 2.52,-11 3.01,-16.6 0.41,-5.5 0.43,-11.1 -0.51,-16.5"
         style="fill:#07085b;fill-opacity:1;fill-rule:nonzero;stroke:none"
         id="path410" /><path
         d="m 8207.07,15441.2 c 5.4,-1.1 10.64,-3.1 15.7,-5.4 5.04,-2.5 9.93,-5.3 14.49,-8.7 9.18,-6.7 17.08,-15.5 22.79,-25.6 2.88,-5 5.11,-10.4 6.76,-15.9 1.7,-5.5 2.68,-11.2 3.09,-16.8 0.84,-11.3 -0.52,-22.4 -3.9,-32.8 0.27,11 -0.11,21.8 -1.95,32.3 -0.18,1.3 -0.51,2.6 -0.82,3.9 -0.31,1.2 -0.52,2.5 -0.89,3.8 -0.74,2.5 -1.39,5.1 -2.34,7.6 -1.74,4.9 -3.84,9.8 -6.48,14.3 -5.17,9.2 -11.96,17.4 -19.86,24.6 -7.97,7.1 -16.86,13.4 -26.59,18.7"
         style="fill:#07085b;fill-opacity:1;fill-rule:nonzero;stroke:none"
         id="path412" /><path
         d="m 8022.17,15700.9 c 0,0 139.38,-94.2 263.21,-110.1 0,0 -42.94,-27.3 -67.65,-23 0.22,-6.6 96.01,-72 176.01,-47.4 80,24.7 -29.63,129.1 -29.63,129.1 0,0 -36.9,76.9 -40.47,78.9 -3.58,2 -66.47,31.8 -70.26,32.5 -3.78,0.8 -137.59,4.5 -137.59,4.5 l -44.54,-6.3 -48.19,-27.5 -0.89,-30.7"
         style="fill:#07085b;fill-opacity:1;fill-rule:nonzero;stroke:none"
         id="path414" /><path
         d="m 8029.43,15446.7 c -0.35,-6.1 -0.35,-12.1 0.15,-18.2 0.4,-6 1.15,-12 2.39,-17.9 2.44,-11.8 6.39,-23.3 12.41,-33.7 5.96,-10.4 14.02,-19.6 23.4,-27.1 9.49,-7.5 20.26,-13.3 31.55,-18 -5.9,1.5 -11.72,3.5 -17.38,5.9 -5.66,2.5 -11,5.7 -16.19,9.2 -5.1,3.7 -9.86,7.8 -14.13,12.5 -4.21,4.7 -7.95,9.8 -11.16,15.3 -6.24,11 -10.24,23.1 -11.93,35.4 -1.7,12.3 -1.67,24.8 0.89,36.6"
         style="fill:#f99893;fill-opacity:1;fill-rule:nonzero;stroke:none"
         id="path416" /><path
         d="m 8171.91,15447.8 c -4.34,-10.4 -9.56,-20.3 -15.24,-29.9 -5.66,-9.7 -11.89,-19 -18.97,-27.8 -3.65,-4.3 -7.43,-8.5 -12.11,-12.2 -1.21,-0.9 -2.49,-1.8 -3.92,-2.6 l -2.36,-1 c -0.96,-0.2 -1.81,-0.5 -2.95,-0.4 l -1.71,0.1 -1.13,0.3 -2.23,0.7 c -1.4,0.5 -2.84,1 -4.16,1.7 -5.42,2.5 -10.28,5.7 -14.93,9.2 -4.61,3.5 -9.03,7.2 -13.05,11.4 9.82,-5.8 19.67,-11.8 29.86,-15.6 1.26,-0.5 2.54,-0.8 3.8,-1.1 l 1.87,-0.5 0.92,-0.2 0.39,0.1 c 1.29,0 3.62,1.5 5.46,3.1 3.87,3.3 7.49,7.4 10.88,11.6 6.92,8.4 13.31,17.4 19.84,26.3 6.47,8.9 12.93,17.9 19.74,26.8"
         style="fill:#f99893;fill-opacity:1;fill-rule:nonzero;stroke:none"
         id="path418" /><path
         d="m 7782.27,15395.5 c 0,0 -16.31,-89.9 107.05,-161.6 l -31.38,86.4 -75.67,75.2"
         style="fill:#ffc0bb;fill-opacity:1;fill-rule:nonzero;stroke:none"
         id="path420" /><path
         d="m 5446.75,14116.8 1565.5,-1477.3 c 34.75,-32.8 82.07,-50.3 129.84,-48 l 124.72,6 c 20.48,1 36.29,18.4 35.3,38.8 -0.99,20.4 -18.39,36.2 -38.88,35.2 l -124.71,-6 c -27.68,-1.3 -55.1,8.8 -75.23,27.8 l -1565.5,1477.3 c -26.86,25.4 -42.53,60.3 -43.56,97.2 l -3.22,115.3 c -0.57,20.5 -17.66,36.6 -38.16,36 -20.5,-0.5 -36.66,-17.6 -36.09,-38 l 3.22,-115.3 c 1.58,-56.6 25.6,-110.2 66.77,-149"
         style="fill:#feb546;fill-opacity:1;fill-rule:nonzero;stroke:none"
         id="path422" /><path
         d="m 6711.01,12814.1 c -30.31,-32 -28.91,-82.4 3.14,-112.7 32.05,-30.2 82.6,-28.8 112.91,3.2 30.3,31.9 28.9,82.4 -3.15,112.6 -32.04,30.2 -82.59,28.8 -112.9,-3.1"
         style="fill:#6d6d6d;fill-opacity:1;fill-rule:nonzero;stroke:none"
         id="path424" /><path
         d="m 6722.63,12803.1 c -24.23,-25.6 -23.11,-65.9 2.52,-90.1 25.62,-24.2 66.04,-23 90.28,2.5 24.23,25.6 23.11,65.9 -2.51,90.1 -25.63,24.2 -66.05,23.1 -90.29,-2.5"
         style="fill:#939292;fill-opacity:1;fill-rule:nonzero;stroke:none"
         id="path426" /><path
         d="m 5507.2,13950.1 c -30.31,-32 -28.9,-82.4 3.15,-112.7 32.04,-30.2 82.59,-28.8 112.9,3.2 30.31,31.9 28.9,82.3 -3.14,112.6 -32.05,30.2 -82.6,28.8 -112.91,-3.1"
         style="fill:#6d6d6d;fill-opacity:1;fill-rule:nonzero;stroke:none"
         id="path428" /><path
         d="m 5518.83,13939.1 c -24.24,-25.6 -23.11,-65.9 2.51,-90.1 25.63,-24.2 66.05,-23.1 90.29,2.5 24.23,25.6 23.11,65.9 -2.52,90.1 -25.62,24.2 -66.04,23.1 -90.28,-2.5"
         style="fill:#939292;fill-opacity:1;fill-rule:nonzero;stroke:none"
         id="path430" /></g></g></svg>
